<?xml version="1.0" standalone="no"?>
  <!DOCTYPE svg PUBLIC "-//W3C//DTD SVG 1.1//EN" "http://www.w3.org/Graphics/SVG/1.1/DTD/svg11.dtd" >
  <svg>
  <metadata>
  Created by font-carrier
  </metadata>
  <defs>
  <font id="VAGWorld-Bold" horiz-adv-x="3072" vert-adv-y="3072" >
    <font-face
      
      font-family="VAG World"
      
      font-weight="400"
      
      font-stretch="normal"
      
      units-per-em="2048"
      
      ascent="3068"
      
      descent="-1076"
      
    />
      <missing-glyph />

      

      
      <glyph glyph-name="uni21" unicode="&#x21;" d="M70 147Q70 219 122 273.50Q174 328 248 328Q320 328 373 274.50Q426 221 426 147Q426 73 372.50 20Q319-33 248-33Q174-33 122 19.50Q70 72 70 147M88 598L88 1323Q88 1399 131 1452Q174 1505 248 1505Q324 1505 366 1454Q408 1403 408 1323L408 598Q408 522 365 469Q322 416 248 416Q172 416 130 467Q88 518 88 598Z"  horiz-adv-x="497" vert-adv-y="2048"  />

      
      <glyph glyph-name="uni22" unicode="&#x22;" d="M178 991L178 1339Q178 1402 215 1443.50Q252 1485 313 1485Q376 1485 412.50 1445Q449 1405 449 1339L449 991Q449 928 412 887Q375 846 313 846Q250 846 214 886Q178 926 178 991M573 991L573 1339Q573 1402 610 1443.50Q647 1485 709 1485Q772 1485 808 1445Q844 1405 844 1339L844 991Q844 928 807 887Q770 846 709 846Q646 846 609.50 886Q573 926 573 991Z"  horiz-adv-x="1024" vert-adv-y="2048"  />

      
      <glyph glyph-name="uni23" unicode="&#x23;" d="M74 514Q74 557 97.50 584.50Q121 612 172 612L276 612L309 858L231 858Q182 858 157.50 886.50Q133 915 133 958Q133 1001 156.50 1029Q180 1057 231 1057L340 1057L383 1378Q389 1429 413.50 1457Q438 1485 498 1485Q537 1485 563.50 1462.50Q590 1440 590 1401L582 1327L545 1057L729 1057L772 1378Q778 1429 802.50 1457Q827 1485 887 1485Q926 1485 952.50 1462.50Q979 1440 979 1401L971 1327L934 1057L1012 1057Q1061 1057 1085.50 1028Q1110 999 1110 958Q1110 915 1090 891Q1063 858 1012 858L907 858L874 612L952 612Q1001 612 1026 583.50Q1051 555 1051 514Q1051 471 1030 446Q1003 413 952 414L844 414L801 94Q797 45 771 16.50Q745-12 686-12Q647-12 620.50 10.50Q594 33 594 72L602 145L639 414L455 414L412 94Q408 45 382 16.50Q356-12 297-12Q258-12 231.50 10.50Q205 33 205 72L213 145L250 414L172 414Q123 414 98.50 442.50Q74 471 74 514M483 612L670 612L702 858L516 858L483 612Z"  horiz-adv-x="1185" vert-adv-y="2048"  />

      
      <glyph glyph-name="uni24" unicode="&#x24;" d="M82 207Q82 275 124 327Q166 379 229 379Q256 379 360.50 334Q465 289 545 289L545 610Q297 682 188 786Q88 882 88 1030Q88 1229 223 1362Q352 1487 545 1505L545 1602Q545 1663 606 1663Q667 1663 668 1602L668 1505Q799 1505 897 1462Q1030 1403 1030 1286Q1030 1225 991 1177.50Q952 1130 893 1130Q862 1130 758 1182Q705 1209 668 1208L668 915Q881 856 987 768Q1130 651 1130 455Q1130 232 975 90Q838-33 668-33L668-125Q668-186 606-186Q545-186 545-125L545-33Q389-33 264 12Q82 78 82 207M432 1071Q432 1024 464 994.50Q496 965 545 952L545 1208Q496 1198 464 1162Q432 1126 432 1071M668 289Q719 289 752.50 331Q786 373 786 430Q786 493 757.50 526Q729 559 668 578L668 289Z"  horiz-adv-x="1210" vert-adv-y="2048"  />

      
      <glyph glyph-name="uni25" unicode="&#x25;" d="M72 1174Q72 1311 165 1408Q258 1505 391 1505Q526 1505 618.50 1407Q711 1309 711 1174Q711 1039 617.50 939.50Q524 840 391 840Q254 840 163 938Q72 1036 72 1174M252 82Q252 115 264 145Q270 159 315 236L977 1397Q1010 1454 1030 1475Q1061 1506 1104 1505Q1155 1505 1190 1472.50Q1225 1440 1225 1391Q1225 1354 1202 1309Q1171 1258 1161 1237L500 76Q467 19 446-2Q415-33 373-33Q322-33 287 0Q252 33 252 82M305 1174Q305 1133 327.50 1104Q350 1075 391 1075Q430 1075 453.50 1102.50Q477 1130 477 1174Q477 1215 453.50 1242.50Q430 1270 391 1270Q352 1270 328.50 1242Q305 1214 305 1174M766 299Q766 434 859 533.50Q952 633 1085 633Q1218 633 1311.50 533.50Q1405 434 1405 299Q1405 166 1312 66.50Q1219-33 1085-33Q948-33 857 64.50Q766 162 766 299M999 299Q999 258 1022.50 230.50Q1046 203 1085 203Q1124 203 1147.50 230.50Q1171 258 1171 299Q1171 340 1148.50 368.50Q1126 397 1085 397Q1046 397 1022.50 369.50Q999 342 999 299Z"  horiz-adv-x="1476" vert-adv-y="2048"  />

      
      <glyph glyph-name="uni26" unicode="&#x26;" d="M80 406Q80 564 174 676Q252 768 410 848Q320 952 296 1008.50Q272 1065 272 1133Q272 1297 390 1393Q508 1489 688 1489Q872 1489 985 1411Q1118 1319 1118 1135Q1118 1020 1044 922Q978 834 868 772L1075 530L1155 629Q1206 695 1234 712Q1262 729 1294 729Q1347 729 1393.50 685Q1440 641 1440 588Q1440 549 1410 505Q1380 461 1327 406L1253 330L1315 258Q1360 209 1373 183.50Q1386 158 1386 133Q1386 67 1339 27.50Q1292-12 1227-12Q1184-12 1159.50 3Q1135 18 1096 66L1036 135Q930 45 815 6Q700-33 555-33Q354-33 221 84Q80 207 80 406M399 418Q399 334 454.50 280.50Q510 227 596 227Q674 227 737.50 256Q801 285 858 336L584 643Q490 588 444.50 534.50Q399 481 399 418M567 1141Q567 1092 590.50 1054Q614 1016 688 954Q776 995 812 1037Q848 1079 848 1126Q848 1192 807 1229Q766 1266 700 1266Q645 1266 606 1231Q567 1196 567 1141Z"  horiz-adv-x="1519" vert-adv-y="2048"  />

      
      <glyph glyph-name="uni27" unicode="&#x27;" d="M100 991L100 1339Q100 1402 137 1443.50Q174 1485 236 1485Q299 1485 335 1445Q371 1405 371 1339L371 991Q371 928 334 887Q297 846 236 846Q173 846 136.50 886Q100 926 100 991Z"  horiz-adv-x="471" vert-adv-y="2048"  />

      
      <glyph glyph-name="uni28" unicode="&#x28;" d="M20 580Q20 803 55.50 996.50Q91 1190 150 1331Q179 1405 195 1432Q240 1506 313 1505Q374 1505 414.50 1469.50Q455 1434 455 1376Q396 1204 352 1004Q303 781 303 580Q303 371 350 156Q401-30 455-217Q455-278 416-313Q377-348 313-348Q254-348 215-301Q186-266 150-174Q93-33 56.50 159.50Q20 352 20 580Z"  horiz-adv-x="473" vert-adv-y="2048"  />

      
      <glyph glyph-name="uni29" unicode="&#x29;" d="M55-217Q114-47 160.50 165Q207 377 207 580Q207 787 160 1001Q107 1187 55 1376Q55 1435 94 1470Q133 1505 197 1505Q269 1505 311 1434Q331 1399 360 1331Q415 1192 452 994.50Q489 797 489 580Q489 353 454 164.50Q419-24 360-174Q321-264 295-299Q256-348 197-348Q136-348 95.50-312Q55-276 55-217Z"  horiz-adv-x="544" vert-adv-y="2048"  />

      
      <glyph glyph-name="uni2a" unicode="&#x2a;" d="M88 965Q88 1020 174 1057Q215 1073 258 1092Q203 1115 150 1139Q89 1172 88 1221Q88 1270 117.50 1305.50Q147 1341 195 1341Q220 1341 246 1327Q297 1292 350 1257Q340 1323 332 1389Q332 1438 363.50 1461.50Q395 1485 442 1485Q491 1485 522 1461.50Q553 1438 553 1389Q553 1362 547 1327Q541 1292 535 1257Q574 1286 614.50 1313.50Q655 1341 688 1341Q735 1341 767 1305.50Q799 1270 799 1221Q799 1164 713 1126Q670 1108 627 1092Q682 1067 737 1044Q798 1013 799 965Q799 914 767 878Q735 842 688 842Q651 842 596 881Q565 904 535 926Q543 860 553 797Q553 748 522.50 723Q492 698 442 698Q395 698 363.50 723Q332 748 332 797Q332 822 341 873Q350 924 350 926Q309 897 268 869.50Q227 842 195 842Q148 842 118 877.50Q88 913 88 965Z"  horiz-adv-x="886" vert-adv-y="2048"  />

      
      <glyph glyph-name="uni2b" unicode="&#x2b;" d="M61 586Q61 649 99 685Q137 721 205 721L506 721L506 1026Q506 1092 542 1131.50Q578 1171 641 1171Q704 1171 740 1131.50Q776 1092 776 1026L776 721L1077 721Q1143 721 1182 686Q1221 651 1221 586Q1221 520 1183 484.50Q1145 449 1077 449L776 449L776 145Q776 79 740.50 39.50Q705 0 641 0Q575 0 540.50 39Q506 78 506 145L506 449L205 449Q139 449 100 487.50Q61 526 61 586Z"  horiz-adv-x="1280" vert-adv-y="2048"  />

      
      <glyph glyph-name="uni2c" unicode="&#x2c;" d="M18-172Q18-143 26.50-120.50Q35-98 49-72L217 231Q242 276 272 299Q311 328 362 328Q430 328 474 288Q518 248 518 186Q518 157 510 133Q502 109 487 86L319-217Q294-262 259.50-287.50Q225-313 174-313Q106-313 62-273Q18-233 18-172Z"  horiz-adv-x="538" vert-adv-y="2048"  />

      
      <glyph glyph-name="uni2d" unicode="&#x2d;" d="M31 578Q31 641 66.50 677Q102 713 166 713L649 713Q710 713 747 676Q784 639 784 578Q784 441 649 440L166 440Q105 440 68 477Q31 514 31 578Z"  horiz-adv-x="813" vert-adv-y="2048"  />

      
      <glyph glyph-name="uni2e" unicode="&#x2e;" d="M76 147Q76 219 128 273.50Q180 328 254 328Q326 328 379 274.50Q432 221 432 147Q432 73 379 20Q326-33 254-33Q180-33 128 19.50Q76 72 76 147Z"  horiz-adv-x="507" vert-adv-y="2048"  />

      
      <glyph glyph-name="uni2f" unicode="&#x2f;" d="M18 78Q18 117 53 190Q82 245 96 274L647 1335Q694 1423 717 1452Q758 1505 807 1505Q922 1505 922 1395Q922 1362 899 1309Q887 1280 844 1198L293 137Q238 31 205-1Q172-33 133-33Q18-33 18 78Z"  horiz-adv-x="942" vert-adv-y="2048"  />

      
      <glyph glyph-name="uni30" unicode="&#x30;" d="M43 737Q43 1052 190 1266Q356 1505 653 1505Q950 1505 1116 1266Q1263 1055 1264 737Q1264 420 1116 207Q950-33 653-33Q356-33 190 207Q43 420 43 737M387 737Q387 565 442 444Q514 289 653 289Q794 289 864 442Q919 563 920 737Q920 907 864 1028Q792 1184 653 1184Q512 1184 442 1030Q387 909 387 737Z"  horiz-adv-x="1304" vert-adv-y="2048"  />

      
      <glyph glyph-name="uni31" unicode="&#x31;" d="M358 1317Q358 1380 398 1426.50Q438 1473 512 1473L782 1473Q852 1473 893 1442Q948 1399 948 1305L948 166Q948 80 902 34Q856-12 782-12Q706-12 661 33Q616 78 616 166L616 1163L512 1163Q438 1163 398 1209Q358 1255 358 1317Z"  horiz-adv-x="1304" vert-adv-y="2048"  />

      
      <glyph glyph-name="uni32" unicode="&#x32;" d="M147 147Q147 225 248 340Q367 459 399 496Q508 623 616 750Q770 949 770 1044Q770 1118 737.50 1151Q705 1184 643 1184Q532 1184 480 1027Q428 870 326 870Q250 870 209 918.50Q168 967 168 1032Q168 1227 309.50 1366Q451 1505 664 1505Q859 1505 992.50 1381Q1126 1257 1126 1059Q1126 924 1044 782Q989 686 856 537Q672 330 657 311L1006 311Q1078 311 1118.50 264Q1159 217 1159 156Q1159 93 1119 46.50Q1079 0 1006 0L336 0Q254 0 200.50 41Q147 82 147 147Z"  horiz-adv-x="1304" vert-adv-y="2048"  />

      
      <glyph glyph-name="uni33" unicode="&#x33;" d="M139 369Q139 428 188.50 475Q238 522 293 522Q375 522 455 405.50Q535 289 657 289Q729 289 776 340Q823 391 823 465Q823 553 760 594Q709 627 616 627Q559 627 520 664Q475 707 475 784Q475 852 512 883.50Q549 915 649 938Q710 952 742 983Q774 1014 774 1073Q774 1128 739.50 1156Q705 1184 649 1184Q573 1184 449 1065Q390 1008 322 1008Q263 1008 224.50 1055Q186 1102 186 1161Q186 1308 342 1411Q483 1505 645 1505Q835 1505 961 1401Q1094 1288 1094 1102Q1094 1022 1053 943Q1012 864 930 803Q1045 758 1106 657.50Q1167 557 1167 428Q1167 229 1019.50 98Q872-33 655-33Q436-33 287.50 89Q139 211 139 369Z"  horiz-adv-x="1304" vert-adv-y="2048"  />

      
      <glyph glyph-name="uni34" unicode="&#x34;" d="M18 442Q18 483 41 535Q53 566 82 606L569 1368Q610 1434 666.50 1459.50Q723 1485 805 1485Q918 1485 984.50 1416.50Q1051 1348 1051 1233L1051 608L1120 608Q1200 608 1244 572.50Q1288 537 1288 459Q1288 383 1245 347Q1202 311 1120 311L1051 311L1051 174Q1051-12 891-12Q731-12 731 170L731 311L184 311Q100 311 55 356Q18 393 18 442M424 608L731 608L731 1135L424 608Z"  horiz-adv-x="1304" vert-adv-y="2048"  />

      
      <glyph glyph-name="uni35" unicode="&#x35;" d="M145 242Q145 316 186 363Q227 410 287 410Q338 410 399 373Q538 289 610 289Q700 289 752.50 351.50Q805 414 805 532Q805 612 764 668Q717 729 641 729Q571 729 505.50 691Q440 653 391 653Q330 653 294 685Q258 717 258 776Q258 809 258 836.50Q258 864 268 932L319 1333Q329 1419 381 1450Q418 1473 496 1473L995 1473Q1069 1473 1109 1426.50Q1149 1380 1149 1317Q1149 1254 1112 1212Q1069 1163 995 1163L600 1163L578 981Q654 1001 731 1001Q936 1001 1053 856Q1162 721 1161 510Q1161 281 1006.50 124Q852-33 621-33Q447-33 303 43Q145 125 145 242Z"  horiz-adv-x="1304" vert-adv-y="2048"  />

      
      <glyph glyph-name="uni36" unicode="&#x36;" d="M123 469Q123 653 213 846Q283 995 412 1157Q588 1378 664 1446Q730 1505 791 1505Q865 1505 911 1446Q950 1397 950 1346Q950 1293 893 1223Q766 1073 641 926L645 922Q692 940 774 940Q950 940 1067 799.50Q1184 659 1184 477Q1184 260 1035.50 113.50Q887-33 653-33Q411-33 267 105.50Q123 244 123 469M467 477Q467 401 521 345Q575 289 653 289Q731 289 785.50 345Q840 401 840 477Q840 555 786.50 610.50Q733 666 653 666Q577 666 522 610.50Q467 555 467 477Z"  horiz-adv-x="1304" vert-adv-y="2048"  />

      
      <glyph glyph-name="uni37" unicode="&#x37;" d="M154 1317Q154 1380 193.50 1426.50Q233 1473 307 1473L979 1473Q1057 1473 1104 1423.50Q1151 1374 1151 1313Q1151 1276 1139 1241Q1135 1231 1104 1161L639 147Q604 67 575 37Q530-12 453-12Q379-12 334 35Q289 82 289 139Q289 172 295 191.50Q301 211 342 297L750 1163L307 1163Q233 1163 193.50 1209Q154 1255 154 1317Z"  horiz-adv-x="1304" vert-adv-y="2048"  />

      
      <glyph glyph-name="uni38" unicode="&#x38;" d="M119 446Q119 552 167 645.50Q215 739 315 801Q268 840 229 907Q180 995 180 1092Q180 1289 322 1401Q453 1505 653 1505Q856 1505 985 1403Q1126 1291 1126 1092Q1126 998 1077 907Q1040 839 991 801Q1089 740 1138.50 647.50Q1188 555 1188 446Q1188 241 1040.50 104Q893-33 653-33Q413-33 266 104.50Q119 242 119 446M463 481Q463 403 518 346Q573 289 653 289Q733 289 788.50 344Q844 399 844 481Q844 561 789.50 617.50Q735 674 653 674Q573 674 518 618.50Q463 563 463 481M512 1065Q512 1008 553 965Q594 922 653 922Q708 922 751.50 965Q795 1008 795 1065Q795 1124 753 1166Q711 1208 653 1208Q596 1208 554 1166Q512 1124 512 1065Z"  horiz-adv-x="1304" vert-adv-y="2048"  />

      
      <glyph glyph-name="uni39" unicode="&#x39;" d="M123 995Q123 1212 271.50 1358.50Q420 1505 653 1505Q895 1505 1039.50 1367Q1184 1229 1184 1004Q1184 820 1094 627Q1026 481 895 317Q713 88 645.50 27.50Q578-33 516-33Q442-33 395 27Q356 76 356 129Q356 180 414 250Q539 397 666 547L662 551Q637 543 610.50 539Q584 535 532 535Q358 535 240.50 675Q123 815 123 995M467 995Q467 917 520 862Q573 807 653 807Q729 807 784.50 862.50Q840 918 840 995Q840 1071 785.50 1127.50Q731 1184 653 1184Q575 1184 521 1127.50Q467 1071 467 995Z"  horiz-adv-x="1304" vert-adv-y="2048"  />

      
      <glyph glyph-name="uni3a" unicode="&#x3a;" d="M86 147Q86 219 138 273.50Q190 328 264 328Q336 328 389 274.50Q442 221 442 147Q442 73 389 20Q336-33 264-33Q190-33 138 19.50Q86 72 86 147M86 793Q86 865 138 919Q190 973 264 973Q336 973 389 919.50Q442 866 442 793Q442 719 389 665.50Q336 612 264 612Q190 612 138 664.50Q86 717 86 793Z"  horiz-adv-x="528" vert-adv-y="2048"  />

      
      <glyph glyph-name="uni3b" unicode="&#x3b;" d="M41-172Q41-143 49-120.50Q57-98 72-72L240 231Q263 276 293 299Q332 328 385 328Q453 328 497 288Q541 248 541 186Q541 166 534.50 145.50Q528 125 510 86L342-217Q317-262 282.50-287.50Q248-313 197-313Q129-313 85-273Q41-233 41-172M184 793Q184 865 236 919Q288 973 362 973Q434 973 487.50 919.50Q541 866 541 793Q541 719 487.50 665.50Q434 612 362 612Q288 612 236 664.50Q184 717 184 793Z"  horiz-adv-x="579" vert-adv-y="2048"  />

      
      <glyph glyph-name="uni3c" unicode="&#x3c;" d="M82 586Q82 668 158 702L991 1090Q1024 1106 1052.50 1112Q1081 1118 1104 1118Q1153 1118 1185 1085.50Q1217 1053 1217 995Q1217 950 1202 926Q1182 891 1120 864L461 586L1120 305Q1179 280 1198 249.50Q1217 219 1217 176Q1217 117 1186 84Q1155 51 1104 51Q1075 51 1052.50 56Q1030 61 991 80L158 467Q82 502 82 586Z"  horiz-adv-x="1296" vert-adv-y="2048"  />

      
      <glyph glyph-name="uni3d" unicode="&#x3d;" d="M76 342Q76 405 114 441Q152 477 219 477L1092 477Q1158 477 1196.50 442.50Q1235 408 1235 342Q1235 276 1197 240.50Q1159 205 1092 205L219 205Q76 205 76 342M76 829Q76 892 115 929.50Q154 967 219 967L1092 967Q1160 967 1197.50 931Q1235 895 1235 829Q1235 766 1196 729Q1157 692 1092 692L219 692Q151 692 113.50 728Q76 764 76 829Z"  horiz-adv-x="1310" vert-adv-y="2048"  />

      
      <glyph glyph-name="uni3e" unicode="&#x3e;" d="M-6 176Q-6 221 8 244Q31 279 90 305L750 586L90 864Q33 889 13.50 920.50Q-6 952-6 995Q-6 1052 24.50 1085Q55 1118 106 1118Q135 1118 157.50 1113Q180 1108 219 1090L1053 702Q1084 688 1106 655.50Q1128 623 1128 586Q1128 545 1107.50 514Q1087 483 1053 467L219 80Q186 64 157.50 57.50Q129 51 106 51Q57 51 25.50 85Q-6 119-6 176Z"  horiz-adv-x="1124" vert-adv-y="2048"  />

      
      <glyph glyph-name="uni3f" unicode="&#x3f;" d="M23 1141Q23 1305 180 1411Q319 1505 489 1505Q700 1505 844 1384Q996 1255 995 1047Q995 861 895 750Q805 652 641 618L641 578Q641 506 598 461Q555 416 481 416Q411 416 366.50 461Q322 506 322 578L322 743Q322 817 371 846Q402 864 481.50 878.50Q561 893 600 930Q639 967 639 1036Q639 1089 598 1130Q557 1171 489 1171Q395 1171 322.50 1078Q250 985 170 985Q109 985 66 1030Q23 1075 23 1141M303 147Q303 219 355 273.50Q407 328 481 328Q553 328 606 274.50Q659 221 659 147Q659 73 606 20Q553-33 481-33Q407-33 355 19.50Q303 72 303 147Z"  horiz-adv-x="1019" vert-adv-y="2048"  />

      
      <glyph glyph-name="uni40" unicode="&#x40;" d="M55 735Q55 1063 282.50 1284Q510 1505 838 1505Q1137 1505 1339 1335Q1550 1157 1550 872Q1550 571 1339 406Q1185 285 1038 285Q917 285 918 389Q871 340 811.50 312.50Q752 285 659 285Q557 285 477 379Q391 481 391 637Q391 850 508 991.50Q625 1133 791 1133Q879 1133 937 1103Q995 1073 1040 1006L1049 1042Q1059 1083 1085.50 1099.50Q1112 1116 1145 1116Q1184 1116 1209.50 1092.50Q1235 1069 1235 1028L1227 971L1163 614Q1157 577 1151 541Q1151 500 1190 500Q1256 500 1305 573Q1366 663 1366 815Q1366 1059 1220.50 1189Q1075 1319 831 1319Q600 1319 438 1149Q276 979 276 735Q276 469 438 311.50Q600 154 850 154Q971 154 1069 183.50Q1167 213 1225 260Q1237 270 1254.50 276.50Q1272 283 1284 283Q1313 283 1337.50 260.50Q1362 238 1362 207Q1362 189 1356 176.50Q1350 164 1339 154Q1276 88 1165 37Q1015-33 850-33Q518-33 286.50 184Q55 401 55 735M625 688Q625 610 657.50 566Q690 522 762 522Q864 522 922.50 582.50Q981 643 981 737Q981 809 941 853Q901 897 825 897Q741 897 683 834.50Q625 772 625 688Z"  horiz-adv-x="1605" vert-adv-y="2048"  />

      
      <glyph glyph-name="uni41" unicode="&#x41;" d="M6 125Q6 164 15.50 206Q25 248 55 332L375 1202Q432 1360 473 1415Q541 1505 651 1505Q741 1505 800.50 1452Q860 1399 932 1202L1251 332Q1284 244 1292 205Q1300 166 1300 125Q1300 62 1257 25Q1214-12 1141-12Q1065-12 1024 33Q991 68 967 152L926 283L381 283L340 152Q313 70 283 35Q242-12 166-12Q94-12 50 25.50Q6 63 6 125M479 594L827 594L662 1133L479 594Z"  horiz-adv-x="1306" vert-adv-y="2048"  />

      
      <glyph glyph-name="uni42" unicode="&#x42;" d="M57 168L57 1305Q57 1385 105.50 1429Q154 1473 223 1473L614 1473Q802 1473 913 1366.50Q1024 1260 1024 1087Q1024 987 965 907Q920 848 850 807Q983 780 1063 682Q1143 584 1143 444Q1143 254 1024 135Q889 0 635 0L223 0Q155 0 106 45Q57 90 57 168M389 297L598 297Q690 297 739 330Q798 369 799 449Q799 525 739.50 562.50Q680 600 598 600L389 600L389 297M389 897L541 897Q692 897 692 1034Q692 1175 541 1176L389 1176L389 897Z"  horiz-adv-x="1200" vert-adv-y="2048"  />

      
      <glyph glyph-name="uni43" unicode="&#x43;" d="M8 737Q8 1075 206.50 1290Q405 1505 731 1505Q911 1505 1026 1456Q1171 1395 1171 1272Q1171 1209 1131.50 1160.50Q1092 1112 1028 1112Q1008 1112 868 1159Q794 1184 739 1184Q551 1184 453 1047Q365 924 365 737Q365 551 456 426Q547 301 711 301Q813 301 885.50 323.50Q958 346 1036 371Q1122 371 1159 309Q1184 268 1184 215Q1184 90 1024 23Q893-32 725-33Q391-33 195 193Q9 406 8 737Z"  horiz-adv-x="1191" vert-adv-y="2048"  />

      
      <glyph glyph-name="uni44" unicode="&#x44;" d="M51 168L51 1305Q51 1385 99 1429Q147 1473 217 1473L614 1473Q925 1473 1116 1251Q1294 1044 1294 748Q1294 400 1090 193Q900 0 614 0L217 0Q149 0 100 45Q51 90 51 168M383 311L559 311Q747 311 846 432Q938 545 938 748Q938 941 848 1049Q753 1163 576 1163Q574 1163 573 1163L383 1163L383 311Z"  horiz-adv-x="1345" vert-adv-y="2048"  />

      
      <glyph glyph-name="uni45" unicode="&#x45;" d="M41 168L41 1305Q41 1385 89 1429Q137 1473 207 1473L715 1473Q795 1473 838 1432Q881 1391 881 1317Q881 1245 838 1204Q795 1163 715 1163L373 1163L373 895L686 895Q764 895 808 854Q852 813 852 741Q852 586 688 586Q687 586 686 586L373 586L373 311L727 311Q807 311 850 270Q893 229 893 156Q893 84 849 42Q805 0 727 0L207 0Q139 0 90 45Q41 90 41 168Z"  horiz-adv-x="931" vert-adv-y="2048"  />

      
      <glyph glyph-name="uni46" unicode="&#x46;" d="M80 166L80 1305Q80 1385 128 1429Q176 1473 246 1473L754 1473Q834 1473 877 1432Q920 1391 920 1317Q920 1245 877 1204Q834 1163 754 1163L412 1163L412 899L711 899Q789 899 833 858Q877 817 877 745Q877 590 713 590Q712 590 711 590L412 590L412 166Q412 80 365.50 34Q319-12 246-12Q170-12 125 33Q80 78 80 166Z"  horiz-adv-x="940" vert-adv-y="2048"  />

      
      <glyph glyph-name="uni47" unicode="&#x47;" d="M43 737Q43 1071 246 1288Q449 1505 760 1505Q983 1505 1145 1423Q1325 1331 1325 1184Q1325 1118 1285 1080Q1245 1042 1176 1042Q1129 1042 1013 1119Q897 1196 774 1196Q604 1196 501.50 1066Q399 936 399 737Q399 547 485 422Q585 277 768 276Q899 276 983 354Q1067 432 1079 563L889 563Q809 563 766 604Q723 645 723 717Q723 872 887 872Q888 872 889 872L1247 872Q1423 872 1423 668Q1423 365 1245 170Q1061-33 760-33Q426-33 229 193Q43 406 43 737Z"  horiz-adv-x="1468" vert-adv-y="2048"  />

      
      <glyph glyph-name="uni48" unicode="&#x48;" d="M76 166L76 1307Q76 1393 122 1439Q168 1485 242 1485Q318 1485 363 1440Q408 1395 408 1307L408 909L1026 909L1026 1307Q1026 1393 1072 1439Q1118 1485 1192 1485Q1268 1485 1313 1440Q1358 1395 1358 1307L1358 166Q1358 80 1312 34Q1266-12 1192-12Q1116-12 1071 33Q1026 78 1026 166L1026 600L408 600L408 166Q408 80 361.50 34Q315-12 242-12Q166-12 121 33Q76 78 76 166Z"  horiz-adv-x="1433" vert-adv-y="2048"  />

      
      <glyph glyph-name="uni49" unicode="&#x49;" d="M76 166L76 1307Q76 1393 122 1439Q168 1485 242 1485Q318 1485 363 1440Q408 1395 408 1307L408 166Q408 80 361.50 34Q315-12 242-12Q166-12 121 33Q76 78 76 166Z"  horiz-adv-x="483" vert-adv-y="2048"  />

      
      <glyph glyph-name="uni4a" unicode="&#x4a;" d="M55 209Q55 277 93 323Q131 369 207 369Q242 369 332 315Q375 289 411 289Q413 289 414 289Q480 289 506 338Q532 387 532 512L532 1307Q532 1393 578.50 1439Q625 1485 698 1485Q774 1485 819 1440Q864 1395 864 1307L864 455Q864 238 788 125Q684-33 424-33Q352-33 279.50-14.50Q207 4 153.50 39Q100 74 77.50 110.50Q55 147 55 209Z"  horiz-adv-x="948" vert-adv-y="2048"  />

      
      <glyph glyph-name="uni4b" unicode="&#x4b;" d="M96 166L96 1307Q96 1393 142 1439Q188 1485 262 1485Q338 1485 383 1440Q428 1395 428 1307L428 897L885 1401Q930 1452 963.50 1468.50Q997 1485 1040 1485Q1097 1485 1151.50 1437Q1206 1389 1206 1323Q1206 1286 1190 1255.50Q1174 1225 1141 1190L745 788L1178 315Q1227 260 1243 236Q1270 195 1270 154Q1270 76 1219.50 32Q1169-12 1096-12Q1039-12 981 35Q950 60 891 129L428 653L428 166Q428 80 382 34Q336-12 262-12Q186-12 141 33Q96 78 96 166Z"  horiz-adv-x="1339" vert-adv-y="2048"  />

      
      <glyph glyph-name="uni4c" unicode="&#x4c;" d="M63 168L63 1307Q63 1393 109.50 1439Q156 1485 229 1485Q305 1485 350 1440Q395 1395 395 1307L395 311L752 311Q832 311 875 270Q918 229 918 156Q918 84 873.50 42Q829 0 752 0L229 0Q161 0 112 45Q63 90 63 168Z"  horiz-adv-x="935" vert-adv-y="2048"  />

      
      <glyph glyph-name="uni4d" unicode="&#x4d;" d="M41 147Q41 188 49 246Q49 250 96 518L227 1274Q247 1395 315 1446Q366 1485 446 1485Q563 1485 621 1405Q664 1346 733 1122L895 616L1061 1122Q1118 1300 1145 1354Q1211 1485 1348 1485Q1426 1485 1477 1446Q1547 1393 1567 1274L1698 518Q1731 330 1742 253Q1753 176 1753 147Q1753 86 1710 37Q1667-12 1597-12Q1497-12 1452 55Q1423 100 1405 209L1307 862L1079 139Q1054 57 1013.50 22.50Q973-12 897-12Q823-12 782 22.50Q741 57 715 139L492 862L389 209Q369 72 322.50 30Q276-12 197-12Q127-12 84 37Q41 86 41 147Z"  horiz-adv-x="1796" vert-adv-y="2048"  />

      
      <glyph glyph-name="uni4e" unicode="&#x4e;" d="M76 166L76 1307Q76 1393 122 1439Q168 1485 242 1485Q316 1485 373 1425Q393 1405 471 1305L1022 608L1026 1307Q1026 1393 1072 1439Q1118 1485 1192 1485Q1268 1485 1313 1440Q1358 1395 1358 1307L1358 166Q1358 80 1312 34Q1266-12 1192-12Q1120-12 1061 49Q1038 74 963 168L412 864L408 166Q408 80 361.50 34Q315-12 242-12Q166-12 121 33Q76 78 76 166Z"  horiz-adv-x="1433" vert-adv-y="2048"  />

      
      <glyph glyph-name="uni4f" unicode="&#x4f;" d="M41 737Q41 1085 236.50 1295Q432 1505 758 1505Q1082 1505 1278.50 1296Q1475 1087 1475 737Q1475 387 1279 177Q1083-33 758-33Q432-33 236.50 177Q41 387 41 737M397 737Q397 542 481 418Q577 277 758 276Q938 276 1034 418Q1118 543 1118 737Q1118 930 1034 1055Q938 1196 758 1196Q578 1196 481 1055Q397 932 397 737Z"  horiz-adv-x="1513" vert-adv-y="2048"  />

      
      <glyph glyph-name="uni50" unicode="&#x50;" d="M39 166L39 1305Q39 1385 87 1429Q135 1473 205 1473L612 1473Q819 1473 958 1348Q1112 1211 1112 973Q1112 750 984 611.50Q856 473 623 473L371 473L371 166Q371 80 325 34Q279-12 205-12Q129-12 84 33Q39 78 39 166M371 772L549 772Q649 772 708.50 831.50Q768 891 768 973Q768 1069 708.50 1122.50Q649 1176 549 1176L371 1176L371 772Z"  horiz-adv-x="1153" vert-adv-y="2048"  />

      
      <glyph glyph-name="uni51" unicode="&#x51;" d="M12 737Q12 1085 207.50 1295Q403 1505 729 1505Q1053 1505 1249.50 1296Q1446 1087 1446 737Q1446 452 1315 260L1395 190Q1456 137 1478.50 101.50Q1501 66 1501 27Q1501-34 1462-75.50Q1423-117 1364-117Q1321-117 1286-98.50Q1251-80 1184-20L1096 57Q940-33 729-33Q403-33 207.50 177Q12 387 12 737M369 737Q369 542 453 418Q549 277 729 276Q788 276 829 291Q761 348 740 383Q719 418 719 457Q719 518 758 559Q797 600 856 600Q895 600 929 581.50Q963 563 1036 504L1047 496Q1090 607 1090 737Q1090 930 1006 1055Q910 1196 729 1196Q549 1196 453 1055Q369 932 369 737Z"  horiz-adv-x="1513" vert-adv-y="2048"  />

      
      <glyph glyph-name="uni52" unicode="&#x52;" d="M49 166L49 1305Q49 1385 97 1429Q145 1473 215 1473L614 1473Q835 1473 968.50 1348Q1102 1223 1102 1016Q1102 852 1012 742.50Q922 633 762 602L1051 287Q1086 250 1103 216Q1120 182 1120 143Q1120 92 1083 47Q1034-12 950-12Q889-12 860 5.50Q831 23 793 70L385 590L381 166Q381 80 335 34Q289-12 215-12Q139-12 94 33Q49 78 49 166M381 838L600 838Q680 838 725 885Q770 932 770 1004Q770 1076 722 1119.50Q674 1163 600 1163L381 1163L381 838Z"  horiz-adv-x="1169" vert-adv-y="2048"  />

      
      <glyph glyph-name="uni53" unicode="&#x53;" d="M16 209Q16 283 57 335Q98 387 172 387Q201 387 317.50 344Q434 301 530 301Q618 301 662.50 342Q707 383 707 440Q707 526 575 575Q550 585 391 637Q178 705 109.50 798Q41 891 41 1034Q41 1263 199 1391Q341 1505 561 1505Q563 1505 565 1505Q762 1505 870.50 1444.50Q979 1384 979 1284Q979 1216 938 1171Q897 1126 831 1126Q792 1126 672 1163Q604 1183 549 1184Q481 1184 439 1150Q397 1116 397 1063Q397 1000 510 960Q623 920 709 891Q873 838 952 758Q1063 649 1063 459Q1063 215 901 86Q751-33 506-33Q330-33 188 25Q16 95 16 209Z"  horiz-adv-x="1077" vert-adv-y="2048"  />

      
      <glyph glyph-name="uni54" unicode="&#x54;" d="M-74 1317Q-74 1473 98 1473L803 1473Q975 1473 975 1317Q975 1247 930 1205Q885 1163 803 1163L616 1163L616 166Q616 80 570 34Q524-12 451-12Q375-12 330 33Q285 78 285 166L285 1163L98 1163Q16 1163-29 1204Q-74 1245-74 1317Z"  horiz-adv-x="899" vert-adv-y="2048"  />

      
      <glyph glyph-name="uni55" unicode="&#x55;" d="M61 592L61 1307Q61 1393 107.50 1439Q154 1485 227 1485Q303 1485 348 1440Q393 1395 393 1307L393 592Q393 451 481 367Q563 289 692 289Q819 289 906 370Q993 451 993 592L993 1307Q993 1393 1039 1439Q1085 1485 1159 1485Q1235 1485 1280 1440Q1325 1395 1325 1307L1325 592Q1325 305 1150 136Q975-33 692-33Q411-33 240 133Q62 305 61 592Z"  horiz-adv-x="1388" vert-adv-y="2048"  />

      
      <glyph glyph-name="uni56" unicode="&#x56;" d="M39 1321Q39 1387 84 1436Q129 1485 201 1485Q285 1485 328 1440Q357 1409 385 1333L668 582L950 1333Q977 1409 1006 1438Q1051 1485 1135 1485Q1205 1485 1250.50 1437Q1296 1389 1296 1321Q1296 1298 1286 1266.50Q1276 1235 1262 1200L848 166Q811 72 791 45Q746-12 664-12Q584-12 539 45Q514 76 479 166L74 1200Q66 1220 52.50 1261.50Q39 1303 39 1321Z"  horiz-adv-x="1335" vert-adv-y="2048"  />

      
      <glyph glyph-name="uni57" unicode="&#x57;" d="M47 1321Q47 1389 93 1437Q139 1485 213 1485Q289 1485 330 1445Q371 1405 385 1335L555 543L799 1313Q830 1407 872.50 1446Q915 1485 985 1485Q1053 1485 1097 1447Q1141 1409 1171 1313L1411 543L1585 1335Q1601 1407 1636 1442Q1679 1485 1757 1485Q1833 1485 1878 1438Q1923 1391 1923 1321Q1923 1286 1908.50 1228.50Q1894 1171 1890 1151L1669 238Q1642 129 1622 88Q1571-12 1436-12Q1260-12 1200 172L987 846L770 172Q739 80 684 34Q629-12 535-12Q424-12 373 51Q334 100 301 238L80 1151Q70 1190 58.50 1237Q47 1284 47 1321Z"  horiz-adv-x="1935" vert-adv-y="2048"  />

      
      <glyph glyph-name="uni58" unicode="&#x58;" d="M6 152Q6 205 31 246Q39 260 78 313L432 793L141 1182Q123 1207 106 1235Q80 1280 80 1326Q80 1390 125 1437.50Q170 1485 254 1485Q313 1485 360 1440Q385 1417 446 1331L633 1071L819 1331Q864 1392 883 1415Q942 1485 1012 1485Q1094 1485 1143 1436Q1186 1393 1186 1329Q1186 1296 1175.50 1266.50Q1165 1237 1124 1182L834 793L1188 313Q1231 256 1245.50 225.50Q1260 195 1260 152Q1260 78 1214.50 33Q1169-12 1098-12Q1049-12 1014 7.50Q979 27 936 86L633 504L330 86Q289 31 252 9.50Q215-12 168-12Q98-12 52 34Q6 80 6 152Z"  horiz-adv-x="1265" vert-adv-y="2048"  />

      
      <glyph glyph-name="uni59" unicode="&#x59;" d="M-14 1332Q-14 1401 36 1443Q86 1485 162 1485Q221 1485 266 1448Q295 1425 330 1372L575 1018L821 1372Q860 1427 883 1446Q930 1485 989 1485Q1065 1485 1115 1444Q1165 1403 1165 1335Q1165 1286 1141.50 1243Q1118 1200 1028 1079L741 690L741 166Q741 80 695 34Q649-12 575-12Q499-12 454.50 33Q410 78 410 166L410 690L123 1079Q37 1196 14 1237Q-14 1286-14 1332Z"  horiz-adv-x="1153" vert-adv-y="2048"  />

      
      <glyph glyph-name="uni5a" unicode="&#x5a;" d="M-10 184Q-10 235 12 276Q18 286 51 332L678 1176L188 1176Q104 1176 58 1215.50Q12 1255 12 1323Q12 1391 57 1432Q102 1473 188 1473L901 1473Q1018 1473 1069 1411Q1104 1370 1104 1305Q1104 1233 948 1024L418 311L958 311Q1042 311 1088.50 269Q1135 227 1135 156Q1135 84 1088.50 42Q1042 0 958 0L223 0Q96 0 43 47Q-10 94-10 184Z"  horiz-adv-x="1124" vert-adv-y="2048"  />

      
      <glyph glyph-name="uni5b" unicode="&#x5b;" d="M14-205L14 1364Q14 1505 156 1505L436 1505Q489 1505 521 1473.50Q553 1442 553 1389Q553 1336 520 1303Q487 1270 436 1270L297 1270L297-113L436-113Q489-113 521-144.50Q553-176 553-229Q553-282 520-315Q487-348 436-348L156-348Q15-348 14-205Z"  horiz-adv-x="567" vert-adv-y="2048"  />

      
      <glyph glyph-name="uni5c" unicode="&#x5c;" d="M20 1395Q20 1506 135 1505Q192 1505 244 1427Q254 1413 295 1335L846 274Q885 194 899 164Q924 107 924 78Q924-33 809-33Q762-33 719 20Q692 55 649 137L98 1198Q65 1259 42.50 1312.50Q20 1366 20 1395Z"  horiz-adv-x="942" vert-adv-y="2048"  />

      
      <glyph glyph-name="uni5d" unicode="&#x5d;" d="M90-229Q90-178 123-145.50Q156-113 207-113L346-113L346 1270L207 1270Q156 1270 123 1302.50Q90 1335 90 1389Q90 1440 123 1472.50Q156 1505 207 1505L487 1505Q628 1505 629 1364L629-205Q629-348 487-348L207-348Q156-348 123-315.50Q90-283 90-229Z"  horiz-adv-x="718" vert-adv-y="2048"  />

      
      <glyph glyph-name="uni5e" unicode="&#x5e;" d="M94 727Q94 766 121 817L436 1397Q463 1446 495.50 1465.50Q528 1485 571 1485Q614 1485 647 1466.50Q680 1448 707 1397L1022 817Q1049 766 1049 727Q1049 686 1016 666Q991 652 944 651Q891 651 860 667.50Q829 684 803 735L571 1163L340 735Q313 686 281.50 668.50Q250 651 199 651Q142 651 118 673.50Q94 696 94 727Z"  horiz-adv-x="1142" vert-adv-y="2048"  />

      
      <glyph glyph-name="uni5f" unicode="&#x5f;" d="M31 106Q31 169 66.50 205.50Q102 242 166 242L1264 242Q1325 242 1362 205Q1399 168 1399 106Q1399-31 1264-31L166-31Q105-31 68 6Q31 43 31 106Z"  horiz-adv-x="1427" vert-adv-y="2048"  />

      
      <glyph glyph-name="uni60" unicode="&#x60;" d="M39 1493Q39 1556 75 1596Q111 1636 172 1636Q190 1636 215 1630Q240 1624 256 1618L563 1483Q639 1448 639 1370Q639 1307 603 1267Q567 1227 506 1227Q488 1227 463 1233Q438 1239 422 1245L115 1380Q39 1413 39 1493Z"  horiz-adv-x="675" vert-adv-y="2048"  />

      
      <glyph glyph-name="uni61" unicode="&#x61;" d="M45 551Q45 795 187.50 964Q330 1133 539 1133Q633 1133 695.50 1106Q758 1079 813 1010Q833 1053 866 1079Q907 1112 963 1112Q1033 1112 1077.50 1065Q1122 1018 1122 946L1122 156Q1122 84 1078 36Q1034-12 963-12Q912-12 871.50 18.50Q831 49 813 90Q713-33 539-33Q332-33 188.50 137Q45 307 45 551M365 551Q365 432 423 354Q481 276 584 276Q686 276 744.50 355Q803 434 803 551Q803 668 748 741Q687 823 584 823Q482 823 423.50 745.50Q365 668 365 551Z"  horiz-adv-x="1165" vert-adv-y="2048"  />

      
      <glyph glyph-name="uni62" unicode="&#x62;" d="M18 156L18 1425Q18 1497 62 1545Q106 1593 178 1593Q248 1593 293 1544Q338 1495 338 1425L338 1042Q393 1087 438 1106Q504 1133 602 1133Q811 1133 953.50 964Q1096 795 1096 551Q1096 305 953.50 136Q811-33 602-33Q508-33 445.50-6.50Q383 20 328 90Q308 47 270.50 17.50Q233-12 178-12Q108-12 63 35Q18 82 18 156M338 551Q338 432 396.50 354Q455 276 557 276Q659 276 717.50 355Q776 434 776 551Q776 668 721 741Q660 823 557 823Q455 823 396.50 745.50Q338 668 338 551Z"  horiz-adv-x="1114" vert-adv-y="2048"  />

      
      <glyph glyph-name="uni63" unicode="&#x63;" d="M41 551Q41 799 190.50 966Q340 1133 580 1133Q723 1133 821 1092Q958 1035 958 920Q958 854 920.50 812Q883 770 827 770Q792 770 729 796.50Q666 823 598 823Q483 823 421.50 745.50Q360 668 360 551Q360 432 418.50 354Q477 276 580 276Q650 276 708 294.50Q766 313 827 334Q880 334 919 289Q958 244 958 190Q958 81 817 18Q702-33 580-33Q340-33 190.50 134Q41 301 41 551Z"  horiz-adv-x="999" vert-adv-y="2048"  />

      
      <glyph glyph-name="uni64" unicode="&#x64;" d="M45 551Q45 795 187.50 964Q330 1133 539 1133Q635 1133 700 1106Q749 1086 803 1042L803 1425Q803 1497 847 1545Q891 1593 963 1593Q1033 1593 1077.50 1544Q1122 1495 1122 1425L1122 156Q1122 84 1078 36Q1034-12 963-12Q912-12 871.50 18.50Q831 49 813 90Q713-33 539-33Q332-33 188.50 137Q45 307 45 551M365 551Q365 432 423 354Q481 276 584 276Q686 276 744.50 355Q803 434 803 551Q803 668 748 741Q687 823 584 823Q482 823 423.50 745.50Q365 668 365 551Z"  horiz-adv-x="1165" vert-adv-y="2048"  />

      
      <glyph glyph-name="uni65" unicode="&#x65;" d="M41 551Q41 791 198.50 962Q356 1133 600 1133Q827 1133 977 965Q1118 805 1118 586Q1118 506 1081 475Q1044 444 963 444L385 444Q385 378 436 330Q504 264 641 264Q729 264 835.50 315.50Q942 367 969 366Q1026 366 1064 328.50Q1102 291 1102 227Q1102 114 947.50 40.50Q793-33 600-33Q350-33 195.50 134Q41 301 41 551M385 666L799 666Q799 732 743 791Q681 860 594 860Q593 860 592 860Q506 860 445.50 794.50Q385 729 385 666Z"  horiz-adv-x="1157" vert-adv-y="2048"  />

      
      <glyph glyph-name="uni66" unicode="&#x66;" d="M31 952Q31 1028 74 1064Q117 1100 199 1100L236 1100L236 1245Q236 1395 329 1494Q422 1593 567 1593Q657 1593 711 1565Q780 1529 780 1446Q780 1294 629 1294Q590 1294 572.50 1271.50Q555 1249 555 1190L555 1100L643 1100Q723 1100 767 1064Q811 1028 811 952Q811 876 766 839.50Q721 803 643 803L555 803L555 156Q555 84 511 36Q467-12 395-12Q325-12 280.50 35Q236 82 236 156L236 803L199 803Q119 803 75 838.50Q31 874 31 952Z"  horiz-adv-x="843" vert-adv-y="2048"  />

      
      <glyph glyph-name="uni67" unicode="&#x67;" d="M66 547Q66 795 208 964Q350 1133 559 1133Q653 1133 715.50 1106Q778 1079 834 1010Q854 1053 887 1079Q928 1112 983 1112Q1053 1112 1098 1065Q1143 1018 1143 946L1143 109Q1143-182 971-330Q819-459 563-459Q401-459 262-406Q86-338 86-219Q86-166 128-122Q170-78 219-78Q260-78 317-106Q452-174 557-174Q700-174 761.50-101.50Q823-29 823 113Q772 43 688 12Q623-12 535-12Q532-12 528-12Q309-12 182 160Q66 317 66 547M385 551Q385 426 442.50 349Q500 272 604 272Q706 272 764.50 351Q823 430 823 551Q823 668 768 741Q706 823 604 823Q502 823 443.50 745.50Q385 668 385 551Z"  horiz-adv-x="1206" vert-adv-y="2048"  />

      
      <glyph glyph-name="uni68" unicode="&#x68;" d="M82 156L82 1425Q82 1497 126 1545Q170 1593 242 1593Q312 1593 356.50 1544Q401 1495 401 1425L401 1053Q483 1102 544.50 1117.50Q606 1133 676 1133Q852 1133 956 1042Q1073 942 1073 754L1073 156Q1073 84 1029 36Q985-12 913-12Q843-12 798.50 35Q754 82 754 156L754 666Q754 752 708 806Q662 860 578 860Q498 860 449.50 806Q401 752 401 666L401 156Q401 84 357 36Q313-12 242-12Q172-12 127 35Q82 82 82 156Z"  horiz-adv-x="1157" vert-adv-y="2048"  />

      
      <glyph glyph-name="uni69" unicode="&#x69;" d="M39 1401Q39 1481 95 1537Q151 1593 229 1593Q309 1593 364.50 1538Q420 1483 420 1401Q420 1319 364.50 1263.50Q309 1208 229 1208Q149 1208 94 1263.50Q39 1319 39 1401M114.50 35Q114.50 35 92.25 58.50Q70 82 70 156L70 946Q70 1016 114 1064Q158 1112 229 1112Q299 1112 344 1065Q389 1018 389 946L389 156Q389 84 345 36Q301-12 229-12Q159-12 114.50 35Z"  horiz-adv-x="456" vert-adv-y="2048"  />

      
      <glyph glyph-name="uni6a" unicode="&#x6a;" d="M-410-164Q-410-96-372-50Q-334-4-258-4Q-223-4-133-57Q-88-84-51-84Q15-84 41.50-35Q68 14 68 139L68 934Q68 1020 114 1066Q160 1112 233 1112Q309 1112 354 1067Q399 1022 399 934L399 82Q399-135 324-248Q220-406-41-406Q-113-406-185.50-387.50Q-258-369-311.50-334Q-365-299-387.50-262Q-410-225-410-164M41 1401Q41 1481 97 1537Q153 1593 231 1593Q311 1593 366.50 1538Q422 1483 422 1401Q422 1319 366.50 1263.50Q311 1208 231 1208Q151 1208 96 1263.50Q41 1319 41 1401Z"  horiz-adv-x="477" vert-adv-y="2048"  />

      
      <glyph glyph-name="uni6b" unicode="&#x6b;" d="M106 156L106 1425Q106 1497 150.50 1545Q195 1593 266 1593Q336 1593 381 1544Q426 1495 426 1425L426 739L686 1001Q745 1060 768 1077Q815 1112 866 1112Q936 1112 979 1069Q1022 1026 1022 965Q1022 916 979 866Q967 852 909 795L737 623L1006 279Q1039 238 1055 211Q1081 170 1081 139Q1081 82 1044 39Q999-12 924-12Q867-12 834 8.50Q801 29 750 96L430 520L426 156Q426 84 382 36Q338-12 266-12Q196-12 151 35Q106 82 106 156Z"  horiz-adv-x="1116" vert-adv-y="2048"  />

      
      <glyph glyph-name="uni6c" unicode="&#x6c;" d="M70 156L70 1425Q70 1497 114 1545Q158 1593 229 1593Q299 1593 344 1544Q389 1495 389 1425L389 156Q389 84 345 36Q301-12 229-12Q159-12 114.50 35Q70 82 70 156Z"  horiz-adv-x="458" vert-adv-y="2048"  />

      
      <glyph glyph-name="uni6d" unicode="&#x6d;" d="M45 156L45 946Q45 1016 89 1064Q133 1112 205 1112Q264 1112 309 1079Q346 1052 365 1010Q404 1069 475.50 1101Q547 1133 639 1133Q719 1133 801 1101Q883 1069 936 1001Q1014 1060 1067 1087Q1155 1132 1245 1133Q1421 1133 1526 1042Q1643 942 1642 754L1642 156Q1642 84 1598 36Q1554-12 1483-12Q1413-12 1368 35Q1323 82 1323 156L1323 666Q1323 746 1280 803Q1237 860 1163 860Q1087 860 1045.50 804Q1004 748 1004 666L1004 156Q1004 84 959.50 36Q915-12 844-12Q774-12 729 35Q684 82 684 156L684 666Q684 746 641 803Q598 860 524 860Q448 860 406.50 804Q365 748 365 666L365 156Q365 84 320.50 36Q276-12 205-12Q135-12 90 35Q45 82 45 156Z"  horiz-adv-x="1687" vert-adv-y="2048"  />

      
      <glyph glyph-name="uni6e" unicode="&#x6e;" d="M45 156L45 946Q45 1016 89 1064Q133 1112 205 1112Q264 1112 309 1079Q346 1052 365 1010Q443 1133 639 1133Q815 1133 920 1042Q1037 942 1036 754L1036 156Q1036 84 992 36Q948-12 877-12Q807-12 762 35Q717 82 717 156L717 666Q717 752 671 806Q625 860 541 860Q461 860 413 806Q365 752 365 666L365 156Q365 84 320.50 36Q276-12 205-12Q135-12 90 35Q45 82 45 156Z"  horiz-adv-x="1081" vert-adv-y="2048"  />

      
      <glyph glyph-name="uni6f" unicode="&#x6f;" d="M33 551Q33 799 182.50 966Q332 1133 571 1133Q811 1133 960.50 967Q1110 801 1110 551Q1110 303 960.50 135Q811-33 571-33Q331-33 182 134Q33 301 33 551M352 551Q352 432 410.50 354Q469 276 571 276Q673 276 732 355Q791 434 791 551Q791 668 735 741Q674 823 571 823Q469 823 410.50 745.50Q352 668 352 551Z"  horiz-adv-x="1142" vert-adv-y="2048"  />

      
      <glyph glyph-name="uni70" unicode="&#x70;" d="M47-291L47 946Q47 1016 91 1064Q135 1112 207 1112Q258 1112 298 1081.50Q338 1051 356 1010Q456 1133 631 1133Q840 1133 982 964Q1124 795 1124 551Q1124 305 982 136Q840-33 631-33Q535-33 477.50-9.50Q420 14 367 57L367-291Q367-363 323-411Q279-459 207-459Q137-459 92-412Q47-365 47-291M367 551Q367 432 425 354Q483 276 586 276Q688 276 746.50 355Q805 434 805 551Q805 668 750 741Q689 823 586 823Q484 823 425.50 745.50Q367 668 367 551Z"  horiz-adv-x="1171" vert-adv-y="2048"  />

      
      <glyph glyph-name="uni71" unicode="&#x71;" d="M53 551Q53 795 195.50 964Q338 1133 547 1133Q641 1133 703.50 1106Q766 1079 821 1010Q846 1059 882 1085.50Q918 1112 971 1112Q1041 1112 1085.50 1065Q1130 1018 1130 946L1130-291Q1130-363 1086-411Q1042-459 971-459Q901-459 856-412Q811-365 811-291L811 57Q756 12 711-6Q645-33 547-33Q340-33 196.50 137Q53 307 53 551M373 551Q373 432 431.50 354Q490 276 592 276Q694 276 752.50 355Q811 434 811 551Q811 668 756 741Q695 823 592 823Q490 823 431.50 745.50Q373 668 373 551Z"  horiz-adv-x="1185" vert-adv-y="2048"  />

      
      <glyph glyph-name="uni72" unicode="&#x72;" d="M68 156L68 946Q68 1016 112 1064Q156 1112 227 1112Q286 1112 332 1079Q369 1052 387 1010Q434 1065 483 1096Q542 1133 608 1134Q674 1134 723 1086Q772 1038 772 967Q772 889 717 850Q682 825 573.50 793.50Q465 762 426 714Q387 666 387 549L387 156Q387 84 343 36Q299-12 227-12Q157-12 112.50 35Q68 82 68 156Z"  horiz-adv-x="782" vert-adv-y="2048"  />

      
      <glyph glyph-name="uni73" unicode="&#x73;" d="M25 190Q25 256 64 301Q103 346 156 346Q189 346 332 283Q402 252 463 252Q510 252 531.50 269.50Q553 287 553 317Q553 352 522 373Q416 418 305 463Q170 520 119 575Q53 645 53 768Q53 915 162 1020Q279 1133 465 1133Q588 1133 696 1081Q833 1015 834 903Q834 842 797 805Q760 768 700 768Q682 768 553 821Q487 848 444 848Q407 848 383.50 831.50Q360 815 360 780Q360 735 489 686Q667 618 729 575Q860 483 860 330Q860 166 740.50 66.50Q621-33 451-33Q285-33 162 25Q25 88 25 190Z"  horiz-adv-x="884" vert-adv-y="2048"  />

      
      <glyph glyph-name="uni74" unicode="&#x74;" d="M43 952Q43 1028 86 1064Q129 1100 211 1100L248 1100L248 1311Q248 1383 292 1431Q336 1479 408 1479Q478 1479 522.50 1431.50Q567 1384 567 1311L567 1100L655 1100Q735 1100 779 1064Q823 1028 823 952Q823 876 778 839.50Q733 803 655 803L567 803L567 156Q567 84 523 36Q479-12 408-12Q338-12 293 35Q248 82 248 156L248 803L211 803Q131 803 87 838.50Q43 874 43 952Z"  horiz-adv-x="868" vert-adv-y="2048"  />

      
      <glyph glyph-name="uni75" unicode="&#x75;" d="M45 346L45 944Q45 1016 89 1064Q133 1112 205 1112Q275 1112 320 1065Q365 1018 365 944L365 434Q365 348 411 294Q457 240 541 240Q621 240 669 294Q717 348 717 434L717 944Q717 1016 761 1064Q805 1112 877 1112Q947 1112 991.50 1065Q1036 1018 1036 944L1036 154Q1036 84 992 36Q948-12 877-12Q818-12 772 20Q735 47 717 90Q639-33 442-33Q266-33 162 57Q45 157 45 346Z"  horiz-adv-x="1081" vert-adv-y="2048"  />

      
      <glyph glyph-name="uni76" unicode="&#x76;" d="M70 949Q70 1018 117 1065Q164 1112 229 1112Q282 1112 320 1087.50Q358 1063 383 991L553 502L727 991Q752 1061 788.50 1086.50Q825 1112 881 1112Q947 1112 993.50 1065Q1040 1018 1040 952Q1040 911 1020 850Q1008 813 991 772L731 119Q706 58 663.50 23Q621-12 555-12Q489-12 447.50 21.50Q406 55 379 119L119 772Q101 821 92 846Q70 909 70 949Z"  horiz-adv-x="1112" vert-adv-y="2048"  />

      
      <glyph glyph-name="uni77" unicode="&#x77;" d="M29 958Q29 1024 71 1068Q113 1112 190 1112Q309 1112 342 999L498 475L645 928Q676 1022 698 1053Q739 1112 817 1112Q907 1112 952 1024Q970 989 989 928L1133 475L1292 999Q1327 1112 1444 1112Q1522 1112 1564 1068Q1606 1024 1606 958Q1606 909 1585 852Q1565 805 1556 778L1333 147Q1304 65 1258 26.50Q1212-12 1135-12Q1053-12 1010 31Q975 66 944 158L819 539L690 158Q661 66 627 31Q584-12 500-12Q420-12 376 25.50Q332 63 301 147L78 778Q62 825 45.50 874.50Q29 924 29 958Z"  horiz-adv-x="1636" vert-adv-y="2048"  />

      
      <glyph glyph-name="uni78" unicode="&#x78;" d="M8 150Q8 195 29 231Q39 247 72 287L344 580L178 758Q108 834 100 844Q55 899 55 946Q55 1020 101 1066Q147 1112 209 1112Q264 1112 298 1095.50Q332 1079 367 1034L537 821L707 1034Q746 1079 777.50 1095.50Q809 1112 864 1112Q925 1112 971.50 1066Q1018 1020 1018 946Q1018 895 977 846Q973 840 895 758L729 580L1001 287Q1034 252 1044 233Q1064 196 1065 150Q1065 76 1017 32Q969-12 901-12Q866-12 834.50 3Q803 18 760 70L537 334L313 70Q272 19 241.50 3.50Q211-12 172-12Q104-12 56 32Q8 76 8 150Z"  horiz-adv-x="1075" vert-adv-y="2048"  />

      
      <glyph glyph-name="uni79" unicode="&#x79;" d="M76 963Q76 1033 122 1072.50Q168 1112 231 1112Q348 1112 395 991L584 498L762 938Q795 1022 829 1061Q874 1112 936 1112Q1010 1112 1055 1069Q1100 1026 1100 950Q1100 921 1088.50 886.50Q1077 852 1061 809L588-305Q553-387 528-414Q487-459 414-459Q338-459 293-408Q256-365 256-315Q256-258 309-137L416 106L143 762Q114 830 95 884Q76 938 76 963Z"  horiz-adv-x="1173" vert-adv-y="2048"  />

      
      <glyph glyph-name="uni7a" unicode="&#x7a;" d="M10 115Q10 140 18.50 164Q27 188 59 233L469 803L188 803Q108 803 64 838.50Q20 874 20 952Q20 1028 63 1064Q106 1100 188 1100L803 1100Q885 1100 924 1061Q952 1033 952 988Q952 948 911 891L473 297L811 297Q891 297 935 261Q979 225 979 150Q979 74 934 37Q889 0 811 0L164 0Q119 0 101.50 4Q84 8 59.50 22.50Q35 37 22.50 58.50Q10 80 10 115Z"  horiz-adv-x="989" vert-adv-y="2048"  />

      
      <glyph glyph-name="uni7b" unicode="&#x7b;" d="M53 580Q53 621 77.50 649.50Q102 678 152 678Q199 678 219 698Q250 729 250 815L250 1235Q250 1372 318.50 1438.50Q387 1505 522 1505L674 1505Q766 1505 766 1413Q766 1368 741.50 1343.50Q717 1319 674 1319L623 1319Q533 1319 532 1200L532 791Q532 693 483 642.50Q434 592 311 582Q436 564 484 515.50Q532 467 532 369L532-41Q532-162 623-162L674-162Q766-162 766-254Q766-299 740.50-323.50Q715-348 674-348L522-348Q250-348 250-76L250 344Q250 428 224.50 453.50Q199 479 152 479Q105 479 79 509Q53 539 53 580Z"  horiz-adv-x="817" vert-adv-y="2048"  />

      
      <glyph glyph-name="uni7c" unicode="&#x7c;" d="M141 100L141 1458Q141 1515 174 1554Q207 1593 264 1593Q323 1593 355 1555.50Q387 1518 387 1458L387 100Q387 43 355.50 5Q324-33 264-33Q205-33 173 5Q141 43 141 100Z"  horiz-adv-x="528" vert-adv-y="2048"  />

      
      <glyph glyph-name="uni7d" unicode="&#x7d;" d="M49-254Q49-207 73.50-184.50Q98-162 141-162L193-162Q283-162 283-41L283 369Q283 467 332 517Q381 567 504 578Q379 596 334 641Q283 692 283 791L283 1200Q283 1319 193 1319L141 1319Q49 1319 49 1413Q49 1460 73.50 1482.50Q98 1505 141 1505L293 1505Q430 1505 497.50 1440.50Q565 1376 565 1235L565 815Q565 731 594 700Q617 677 664 678Q711 678 736.50 648Q762 618 762 580Q762 539 737.50 509Q713 479 664 479Q617 479 596 459Q565 428 565 344L565-76Q565-348 293-348L141-348Q49-348 49-254Z"  horiz-adv-x="811" vert-adv-y="2048"  />

      
      <glyph glyph-name="uni7e" unicode="&#x7e;" d="M115 506Q115 617 195.50 705Q276 793 403 793Q499 793 659 722Q819 651 860 651Q915 651 1006 735Q1049 776 1087 776Q1132 776 1154 744.50Q1176 713 1176 664Q1176 555 1096 471Q1007 379 874 379Q794 379 690 422Q450 520 430 520Q375 520 285 436Q242 395 203 395Q158 395 136.50 426Q115 457 115 506Z"  horiz-adv-x="1290" vert-adv-y="2048"  />

      
      <glyph glyph-name="unia1" unicode="&#xa1;" d="M115 954Q115 1026 168 1079.50Q221 1133 293 1133Q365 1133 418 1081.50Q471 1030 471 954Q471 880 418 827Q365 774 293 774Q221 774 168 827.50Q115 881 115 954M175-354.50Q175-354.50 154-328.75Q133-303 133-223L133 502Q133 578 176 631Q219 684 293 684Q369 684 411 633Q453 582 453 502L453-223Q453-299 410-352.50Q367-406 293-406Q217-406 175-354.50Z"  horiz-adv-x="585" vert-adv-y="2048"  />

      
      <glyph glyph-name="unia2" unicode="&#xa2;" d="M147 551Q147 780 280.50 944Q414 1108 629 1133L629 1253Q629 1276 647.50 1296.50Q666 1317 690 1317Q715 1317 733.50 1298.50Q752 1280 752 1253L752 1133Q873 1133 961 1083Q1065 1024 1065 920Q1065 854 1027 812Q989 770 934 770Q897 770 829 797Q782 815 752 819L752 283Q805 289 883 319Q920 333 934 334Q987 334 1026 289Q1065 244 1065 190Q1065 96 958 33Q870-20 752-33L752-166Q752-189 733.50-209Q715-229 690-229Q665-229 647-211Q629-193 629-166L629-33Q412-10 279.50 153.50Q147 317 147 551M467 551Q467 453 509 380Q551 307 629 285L629 811Q551 791 509 719Q467 647 467 551Z"  horiz-adv-x="1210" vert-adv-y="2048"  />

      
      <glyph glyph-name="unia3" unicode="&#xa3;" d="M55 741Q55 802 101 848.50Q147 895 229 895L297 895Q277 950 264.50 993Q252 1036 252 1075Q252 1272 399.50 1388.50Q547 1505 793 1505Q1059 1505 1204 1368Q1317 1262 1317 1128Q1317 1067 1270 1022Q1223 977 1161 977Q1091 977 1044 1049Q938 1209 793 1208Q709 1208 652.50 1165Q596 1122 596 1040Q596 1011 612.50 962Q629 913 635 893L815 895Q899 895 944 850Q989 805 989 741Q989 680 944 633Q899 586 815 586L680 586Q680 494 665.50 442.50Q651 391 600 324L1143 324Q1225 324 1274 278.50Q1323 233 1323 162Q1323 90 1274 45Q1225 0 1143 0L387 0Q303 0 246.50 39Q190 78 190 162Q190 230 262 324Q342 428 358 586L229 586Q145 586 100 631Q55 676 55 741Z"  horiz-adv-x="1378" vert-adv-y="2048"  />

      
      <glyph glyph-name="unia4" unicode="&#xa4;" d="M78 737Q78 901 164 1026L115 1073Q84 1104 84 1145Q84 1186 114.50 1218.50Q145 1251 188 1251Q237 1251 272 1217L311 1178Q436 1264 600 1264Q764 1264 889 1178L928 1217Q963 1252 1012 1251Q1053 1251 1084.50 1219.50Q1116 1188 1116 1145Q1116 1104 1085 1073L1036 1026Q1077 965 1099.50 893Q1122 821 1122 737Q1122 653 1100.50 581.50Q1079 510 1036 446L1085 399Q1116 368 1116 330Q1116 287 1085.50 254Q1055 221 1012 221Q963 221 928 256L889 295Q764 209 600 209Q436 209 311 295L272 256Q237 221 188 221Q147 221 115.50 253Q84 285 84 330Q84 369 115 399L164 446Q121 509 99.50 579Q78 649 78 737M336 737Q336 620 411.50 538.50Q487 457 602 457Q717 457 790.50 536.50Q864 616 864 737Q864 854 789.50 935Q715 1016 602 1016Q489 1016 412.50 935Q336 854 336 737Z"  horiz-adv-x="1200" vert-adv-y="2048"  />

      
      <glyph glyph-name="unia5" unicode="&#xa5;" d="M92 1335Q92 1401 142.50 1443Q193 1485 268 1485Q327 1485 373 1448Q402 1425 436 1372L682 1018L928 1372Q967 1427 989 1446Q1036 1485 1096 1485Q1172 1485 1222 1444Q1272 1403 1272 1335Q1272 1286 1245.50 1237Q1219 1188 1135 1079L987 889L1143 889Q1180 889 1210.50 860Q1241 831 1241 793Q1241 752 1212.50 721Q1184 690 1143 690L848 690L848 575L1143 575Q1180 575 1210.50 546.50Q1241 518 1241 477Q1241 436 1211.50 406.50Q1182 377 1143 377L848 377L848 166Q848 80 802 34Q756-12 682-12Q606-12 561 33Q516 78 516 166L516 377L221 377Q182 377 152.50 406.50Q123 436 123 477Q123 518 151.50 546.50Q180 575 221 575L516 575L516 690L221 690Q184 690 153.50 721Q123 752 123 793Q123 832 151.50 860.50Q180 889 221 889L377 889L229 1079Q141 1194 116.50 1239Q92 1284 92 1335Z"  horiz-adv-x="1366" vert-adv-y="2048"  />

      
      <glyph glyph-name="unia6" unicode="&#xa6;" d="M135 100L135 506Q135 565 167 603Q199 641 258 641Q317 641 349 603Q381 565 381 506L381 100Q381 43 349 5Q317-33 258-33Q199-33 167 5Q135 43 135 100M135 1053L135 1458Q135 1515 168 1554Q201 1593 258 1593Q317 1593 349 1555.50Q381 1518 381 1458L381 1053Q381 996 348 957Q315 918 258 918Q199 918 167 955.50Q135 993 135 1053Z"  horiz-adv-x="518" vert-adv-y="2048"  />

      
      <glyph glyph-name="unia7" unicode="&#xa7;" d="M76 586Q76 692 125 769Q174 846 272 903Q213 954 190.50 1006.50Q168 1059 168 1141Q168 1299 284.50 1402Q401 1505 590 1505Q758 1505 887 1419Q1016 1333 1016 1210Q1016 1157 980 1114Q944 1071 889 1071Q846 1071 711 1198Q648 1257 582 1257Q539 1257 507 1231.50Q475 1206 475 1167Q475 1081 633 995Q914 843 930 831Q1090 710 1090 539Q1090 422 1038.50 338Q987 254 899 207Q946 168 978 112.50Q1010 57 1010 4Q1010-182 885-287Q768-385 582-385Q406-385 279-305Q144-219 143-92Q143-39 179 1Q215 41 276 41Q327 41 408-48Q489-137 584-137Q635-137 668.50-114.50Q702-92 702-47Q702 33 541 123Q275 273 240 299Q76 426 76 586M358 631Q358 582 434 526Q469 501 524 469L723 350Q807 401 807 481Q807 532 731 588Q706 606 643 643L442 764Q358 713 358 631Z"  horiz-adv-x="1165" vert-adv-y="2048"  />

      
      <glyph glyph-name="unia8" unicode="&#xa8;" d="M-12 1432Q-12 1498 34 1545.50Q80 1593 147 1593Q213 1593 260 1546.50Q307 1500 307 1432Q307 1364 260 1317Q213 1270 147 1270Q81 1270 34.50 1317Q-12 1364-12 1432M463 1432Q463 1498 509 1545.50Q555 1593 623 1593Q689 1593 735.50 1546.50Q782 1500 782 1432Q782 1364 735 1317Q688 1270 623 1270Q557 1270 510 1317Q463 1364 463 1432Z"  horiz-adv-x="770" vert-adv-y="2048"  />

      
      <glyph glyph-name="unia9" unicode="&#xa9;" d="M98 737Q98 1089 330 1305Q545 1505 860 1505Q1171 1505 1389 1305Q1622 1088 1622 737Q1622 385 1389 168Q1174-33 860-33Q547-33 332 168Q99 385 98 737M332 737Q332 479 482.50 316.50Q633 154 860 154Q1085 154 1237 315.50Q1389 477 1389 737Q1389 993 1236 1156Q1083 1319 860 1319Q635 1319 483.50 1157Q332 995 332 737M483 743Q483 940 592 1064Q701 1188 887 1188Q1034 1188 1135 1104Q1225 1028 1225 940Q1225 899 1206 874Q1179 837 1139 838Q1069 838 1032 926Q1020 959 982 980Q944 1001 887 1001Q803 1001 754 933.50Q705 866 705 748Q705 631 755 558Q805 485 891 485Q944 485 987 514Q1018 534 1034 565Q1061 616 1079 633Q1106 658 1147 657Q1184 657 1208.50 632.50Q1233 608 1233 567Q1233 489 1145 403Q1039 299 891 299Q709 299 596 426Q483 553 483 743Z"  horiz-adv-x="1720" vert-adv-y="2048"  />

      
      <glyph glyph-name="uniaa" unicode="&#xaa;" d="M84 1161Q84 1306 177 1405.50Q270 1505 414 1505Q529 1505 594 1434Q621 1506 690 1505Q801 1505 801 1415L801 899Q801 809 690 809Q620 809 594 881Q524 809 414 809Q273 809 178.50 911.50Q84 1014 84 1161M305 1157Q305 1096 342 1052Q379 1008 442 1008Q505 1008 542.50 1051Q580 1094 580 1157Q580 1216 542.50 1261.50Q505 1307 442 1307Q381 1307 343 1263Q305 1219 305 1157Z"  horiz-adv-x="884" vert-adv-y="2048"  />

      
      <glyph glyph-name="uniab" unicode="&#xab;" d="M72 578Q72 629 90.50 672Q109 715 154 748L326 872Q355 895 378 905Q401 915 430 915Q475 915 505 883.50Q535 852 535 807Q535 768 524.50 743.50Q514 719 479 696L297 578L479 455Q508 435 521.50 408Q535 381 535 348Q535 303 506 270.50Q477 238 430 238Q403 238 379.50 248Q356 258 326 281L154 408Q111 441 91.50 483.50Q72 526 72 578M578 578Q578 629 596 672Q614 715 659 748L831 872Q860 895 883.50 905Q907 915 936 915Q981 915 1010.50 883.50Q1040 852 1040 807Q1040 768 1030 743.50Q1020 719 985 696L803 578L985 455Q1014 435 1027 408Q1040 381 1040 348Q1040 303 1011.50 270.50Q983 238 936 238Q909 238 885.50 248Q862 258 831 281L659 408Q616 441 597 483.50Q578 526 578 578Z"  horiz-adv-x="1112" vert-adv-y="2048"  />

      
      <glyph glyph-name="uniac" unicode="&#xac;" d="M88 829Q88 892 127 929.50Q166 967 231 967L1083 967Q1181 967 1214 932Q1247 897 1247 801L1247 381Q1247 315 1213.50 275.50Q1180 236 1118 236Q1057 236 1023 275.50Q989 315 989 381L989 692L231 692Q163 692 125.50 728Q88 764 88 829Z"  horiz-adv-x="1333" vert-adv-y="2048"  />

      
      <glyph glyph-name="uniad" unicode="&#xad;" d="M88 580Q88 643 126 679Q164 715 231 715L1104 715Q1170 715 1208.50 680Q1247 645 1247 580Q1247 517 1209 480.50Q1171 444 1104 444L231 444Q165 444 126.50 479Q88 514 88 580Z"  horiz-adv-x="1335" vert-adv-y="2048"  />

      
      <glyph glyph-name="uniae" unicode="&#xae;" d="M98 737Q98 1089 330 1305Q545 1505 860 1505Q1171 1505 1389 1305Q1622 1088 1622 737Q1622 385 1389 168Q1174-33 860-33Q547-33 332 168Q99 385 98 737M332 737Q332 479 482.50 316.50Q633 154 860 154Q1085 154 1237 315.50Q1389 477 1389 737Q1389 993 1236 1156Q1083 1319 860 1319Q635 1319 483.50 1157Q332 995 332 737M557 430L557 1057Q557 1102 583.50 1126.50Q610 1151 649 1151L905 1151Q1055 1151 1122 1100Q1200 1041 1200 901Q1200 792 1145 731Q1090 670 1012 670L1155 475Q1180 442 1180 406Q1180 375 1154 356.50Q1128 338 1094 338Q1051 338 1026 360Q1018 368 991 406L803 670L741 670L741 430Q741 385 715.50 361.50Q690 338 649 338Q557 338 557 430M741 819L895 819Q938 819 954 825Q1003 843 1004 909Q1004 964 976 982.50Q948 1001 895 1001L741 1001L741 819Z"  horiz-adv-x="1720" vert-adv-y="2048"  />

      
      <glyph glyph-name="uniaf" unicode="&#xaf;" d="M0 1432Q0 1489 35 1526Q70 1563 129 1563L621 1563Q750 1563 750 1432Q750 1373 716 1336.50Q682 1300 621 1300L129 1300Q0 1300 0 1432Z"  horiz-adv-x="749" vert-adv-y="2048"  />

      
      <glyph glyph-name="unib0" unicode="&#xb0;" d="M74 1210Q74 1333 158 1419Q242 1505 367 1505Q490 1505 574.50 1420Q659 1335 659 1210Q659 1085 575.50 999Q492 913 367 913Q244 913 159 1000Q74 1087 74 1210M221 1210Q221 1149 264.50 1106Q308 1063 367 1063Q426 1063 469 1106Q512 1149 512 1210Q512 1267 469 1312.50Q426 1358 367 1358Q308 1358 264.50 1315Q221 1272 221 1210Z"  horiz-adv-x="735" vert-adv-y="2048"  />

      
      <glyph glyph-name="unib1" unicode="&#xb1;" d="M72 137Q72 200 109.50 236Q147 272 215 272L1087 272Q1153 272 1192 237.50Q1231 203 1231 137Q1231 71 1193 35.50Q1155 0 1087 0L215 0Q72 0 72 137M72 754Q72 817 109.50 853Q147 889 215 889L516 889L516 1026Q516 1092 552 1131.50Q588 1171 651 1171Q714 1171 750 1131.50Q786 1092 786 1026L786 889L1087 889Q1153 889 1192 854Q1231 819 1231 754Q1231 688 1193 652Q1155 616 1087 616L786 616L786 479Q786 416 750.50 376Q715 336 651 336Q585 336 550.50 375Q516 414 516 479L516 616L215 616Q72 616 72 754Z"  horiz-adv-x="1302" vert-adv-y="2048"  />

      
      <glyph glyph-name="unib2" unicode="&#xb2;" d="M74 688Q74 739 182 846Q282 940 385 1036Q494 1149 494 1221Q494 1256 465 1275Q436 1294 403 1294Q337 1294 303.50 1209Q270 1124 199 1124Q146 1124 118 1154Q90 1184 90 1221Q90 1340 181 1422.50Q272 1505 418 1505Q551 1505 639 1432.50Q727 1360 727 1237Q727 1106 569 944Q495 872 424 801L649 801Q698 801 723 772Q748 743 748 700Q748 661 722 631.50Q696 602 649 602L199 602Q148 602 111 625.50Q74 649 74 688Z"  horiz-adv-x="819" vert-adv-y="2048"  />

      
      <glyph glyph-name="unib3" unicode="&#xb3;" d="M86 827Q86 868 113.50 895Q141 922 186 922Q237 922 272 885Q352 801 424 801Q465 801 495.50 829.50Q526 858 526 893Q526 963 415.50 979Q305 995 305 1069Q305 1137 399.50 1161.50Q494 1186 494 1241Q494 1268 471.50 1281Q449 1294 410 1294Q357 1294 304.50 1250Q252 1206 205 1206Q164 1206 140.50 1234Q117 1262 117 1298Q117 1394 219 1454Q307 1505 424 1505Q541 1505 628 1439.50Q715 1374 715 1264Q715 1213 687 1167.50Q659 1122 600 1087Q678 1056 719 997Q760 938 760 862Q760 739 663.50 664.50Q567 590 422 590Q293 590 189.50 660.50Q86 731 86 827Z"  horiz-adv-x="843" vert-adv-y="2048"  />

      
      <glyph glyph-name="unib4" unicode="&#xb4;" d="M16 1370Q16 1448 92 1483L399 1618Q413 1624 437 1630Q461 1636 483 1636Q542 1636 579 1595Q616 1554 616 1493Q616 1413 541 1380L233 1245Q219 1239 195.50 1233Q172 1227 150 1227Q91 1227 53.50 1268Q16 1309 16 1370Z"  horiz-adv-x="632" vert-adv-y="2048"  />

      
      <glyph glyph-name="unib5" unicode="&#xb5;" d="M115-291L115 946Q115 1016 159 1064Q203 1112 274 1112Q344 1112 389 1065Q434 1018 434 946L434 446Q434 362 487.50 315Q541 268 610 268Q690 268 738 322.50Q786 377 786 463L786 946Q786 1016 830 1064Q874 1112 946 1112Q1016 1112 1061 1065Q1106 1018 1106 946L1106 156Q1106 84 1062 36Q1018-12 946-12Q895-12 855 18.50Q815 49 797 90Q752 33 708 10.50Q664-12 614-12Q551-12 507 15.50Q463 43 438 88L434-291Q434-363 390-411Q346-459 274-459Q204-459 159.50-412Q115-365 115-291Z"  horiz-adv-x="1220" vert-adv-y="2048"  />

      
      <glyph glyph-name="unib6" unicode="&#xb6;" d="M109 1104Q109 1313 254 1401Q373 1473 612 1473L1133 1473Q1190 1473 1222.50 1440Q1255 1407 1255 1350L1255-248Q1255-303 1222.50-338Q1190-373 1133-373Q1010-373 1010-248L1010 1286L811 1286L811-248Q811-303 778-338Q745-373 688-373Q565-373 565-248L565 752Q342 752 225.50 844Q109 936 109 1104Z"  horiz-adv-x="1363" vert-adv-y="2048"  />

      
      <glyph glyph-name="unib7" unicode="&#xb7;" d="M129 575Q129 647 181 701.50Q233 756 307 756Q379 756 432 702.50Q485 649 485 575Q485 501 432 448Q379 395 307 395Q233 395 181 447.50Q129 500 129 575Z"  horiz-adv-x="612" vert-adv-y="2048"  />

      
      <glyph glyph-name="unib8" unicode="&#xb8;" d="M-25-362Q-25-337-9.50-314Q6-291 31-291Q51-291 100-311Q129-323 145-324Q174-324 194.50-305.50Q215-287 215-256Q215-227 194.50-213Q174-199 152-199L111-199Q93-199 78-184.50Q63-170 63-152Q63-127 82-98Q90-86 119-51L162 0L303 0L223-109L272-106Q344-106 390-150.50Q436-195 436-270Q436-358 348-412Q272-459 180-459Q102-459 55-444Q-25-419-25-362Z"  horiz-adv-x="411" vert-adv-y="2048"  />

      
      <glyph glyph-name="unib9" unicode="&#xb9;" d="M111 1395Q111 1434 136.50 1463.50Q162 1493 209 1493L397 1493Q446 1493 480 1466.50Q514 1440 514 1380L514 707Q514 658 482.50 624Q451 590 397 590Q340 590 310.50 622.50Q281 655 281 707L281 1294L209 1294Q160 1294 135.50 1323Q111 1352 111 1395Z"  horiz-adv-x="622" vert-adv-y="2048"  />

      
      <glyph glyph-name="uniba" unicode="&#xba;" d="M59 1161Q59 1306 156.50 1405.50Q254 1505 416 1505Q574 1505 673 1406Q772 1307 772 1161Q772 1011 673 910Q574 809 416 809Q256 809 157.50 909.50Q59 1010 59 1161M281 1157Q281 1098 318 1053Q355 1008 416 1008Q479 1008 515 1052Q551 1096 551 1157Q551 1216 514 1261.50Q477 1307 416 1307Q353 1307 317 1263Q281 1219 281 1157Z"  horiz-adv-x="831" vert-adv-y="2048"  />

      
      <glyph glyph-name="unibb" unicode="&#xbb;" d="M66 348Q66 383 77 408.50Q88 434 121 457L303 578L121 698Q88 721 77 745.50Q66 770 66 807Q66 850 94.50 882.50Q123 915 170 915Q197 915 220.50 905Q244 895 274 872L446 748Q489 715 508.50 672Q528 629 528 578Q528 525 511 483.50Q494 442 446 408L274 281Q245 258 222 248Q199 238 170 238Q125 238 95.50 269.50Q66 301 66 348M571 348Q571 383 582.50 408.50Q594 434 627 457L809 578L627 698Q594 721 582.50 745.50Q571 770 571 807Q571 850 600 882.50Q629 915 676 915Q703 915 726.50 905Q750 895 780 872L952 748Q995 715 1014.50 672Q1034 629 1034 578Q1034 525 1016.50 483.50Q999 442 952 408L780 281Q751 258 728 248Q705 238 676 238Q631 238 601 269.50Q571 301 571 348Z"  horiz-adv-x="1099" vert-adv-y="2048"  />

      
      <glyph glyph-name="unibc" unicode="&#xbc;" d="M16 1395Q16 1434 42 1463.50Q68 1493 115 1493L303 1493Q352 1493 386 1466.50Q420 1440 420 1380L420 707Q420 658 388 624Q356 590 303 590Q246 590 216 622.50Q186 655 186 707L186 1294L115 1294Q66 1294 41 1323Q16 1352 16 1395M332 82Q332 115 344 145Q350 159 395 236L1057 1397Q1090 1454 1110 1475Q1141 1506 1184 1505Q1235 1505 1270 1472.50Q1305 1440 1305 1391Q1305 1358 1295.50 1335.50Q1286 1313 1241 1237L580 76Q547 19 526-2Q495-33 453-33Q402-33 367 0Q332 33 332 82M983 258Q983 287 997 317Q1003 329 1024 362L1341 821Q1372 868 1408 884.50Q1444 901 1505 901Q1587 901 1633 861Q1679 821 1679 752L1679 373L1737 373Q1784 373 1808.50 346Q1833 319 1833 272Q1833 229 1807.50 201.50Q1782 174 1737 174L1679 174L1679 84Q1679-12 1561-12Q1508-12 1477 14.50Q1446 41 1446 84L1446 174L1092 174Q1037 174 1010 198.50Q983 223 983 258M1268 373L1446 373L1446 635L1268 373Z"  horiz-adv-x="1849" vert-adv-y="2048"  />

      
      <glyph glyph-name="unibd" unicode="&#xbd;" d="M47 1395Q47 1434 72.50 1463.50Q98 1493 145 1493L334 1493Q383 1493 417 1466.50Q451 1440 451 1380L451 707Q451 658 419 624Q387 590 334 590Q277 590 247 622.50Q217 655 217 707L217 1294L145 1294Q96 1294 71.50 1323Q47 1352 47 1395M360 82Q360 119 383 164Q414 215 424 236L1085 1397Q1118 1454 1139 1475Q1170 1506 1212 1505Q1263 1505 1298 1472.50Q1333 1440 1333 1391Q1333 1358 1324 1335.50Q1315 1313 1270 1237L608 76Q575 19 555-2Q524-33 481-33Q430-33 395 0Q360 33 360 82M1137 86Q1137 137 1245 244Q1345 338 1448 434Q1557 547 1556 618Q1556 653 1527.50 672.50Q1499 692 1466 692Q1400 692 1367.50 608Q1335 524 1262 524Q1209 524 1181 552Q1153 580 1153 618Q1153 737 1244 820Q1335 903 1481 903Q1614 903 1702 830.50Q1790 758 1790 635Q1790 504 1632 342Q1558 270 1487 199L1712 199Q1761 199 1785.50 170Q1810 141 1810 98Q1810 59 1784.50 29.50Q1759 0 1712 0L1262 0Q1211 0 1174 23.50Q1137 47 1137 86Z"  horiz-adv-x="1857" vert-adv-y="2048"  />

      
      <glyph glyph-name="unibe" unicode="&#xbe;" d="M4 827Q4 868 31.50 895Q59 922 104 922Q155 922 190 885Q270 801 342 801Q383 801 413.50 829.50Q444 858 444 893Q444 963 333.50 979Q223 995 223 1069Q223 1137 317.50 1161.50Q412 1186 412 1241Q412 1268 389.50 1281Q367 1294 328 1294Q275 1294 222.50 1250Q170 1206 123 1206Q82 1206 58.50 1234Q35 1262 35 1298Q35 1394 137 1454Q225 1505 342 1505Q459 1505 546 1439.50Q633 1374 633 1264Q633 1213 605.50 1167.50Q578 1122 518 1087Q596 1056 637 997Q678 938 678 862Q678 739 581.50 664.50Q485 590 340 590Q211 590 107.50 660.50Q4 731 4 827M430 82Q430 119 453 164Q484 215 494 236L1155 1397Q1188 1454 1208 1475Q1239 1506 1282 1505Q1333 1505 1368 1472.50Q1403 1440 1403 1391Q1403 1358 1393.50 1335.50Q1384 1313 1339 1237L678 76Q645 19 625-2Q594-33 551-33Q500-33 465 0Q430 33 430 82M971 258Q971 287 985 317Q991 329 1012 362L1329 821Q1378 891 1493 891Q1575 891 1621 851Q1667 811 1667 741L1667 373L1724 373Q1771 373 1796 346Q1821 319 1821 272Q1821 229 1795 201.50Q1769 174 1724 174L1667 174L1667 84Q1667-12 1548-12Q1495-12 1464.50 14.50Q1434 41 1434 84L1434 174L1079 174Q1024 174 997.50 198.50Q971 223 971 258M1255 373L1434 373L1434 635L1255 373Z"  horiz-adv-x="1826" vert-adv-y="2048"  />

      
      <glyph glyph-name="unibf" unicode="&#xbf;" d="M-37 53Q-37 241 63 352Q151 448 317 481L317 524Q317 596 361.50 640Q406 684 477 684Q549 684 593 640Q637 596 637 524L637 358Q637 284 588 254Q557 236 477 221.50Q397 207 358 171Q319 135 319 63Q319 12 360-29Q401-70 469-70Q563-70 636 23.50Q709 117 788 117Q849 117 892.50 70Q936 23 936-39Q936-201 778-309Q637-405 469-406Q258-406 115-285Q-37-156-37 53M299 954Q299 1026 352.50 1079.50Q406 1133 477 1133Q549 1133 602 1081.50Q655 1030 655 954Q655 880 602 827Q549 774 477 774Q405 774 352 827.50Q299 881 299 954Z"  horiz-adv-x="899" vert-adv-y="2048"  />

      
      <glyph glyph-name="unic0" unicode="&#xc0;" d="M6 125Q6 164 15.50 206Q25 248 55 332L375 1202Q432 1360 473 1415Q541 1505 651 1505Q741 1505 800.50 1452Q860 1399 932 1202L1251 332Q1284 244 1292 205Q1300 166 1300 125Q1300 62 1257 25Q1214-12 1141-12Q1065-12 1024 33Q991 68 967 152L926 283L381 283L340 152Q313 70 283 35Q242-12 166-12Q94-12 50 25.50Q6 63 6 125M287 1837Q287 1900 322.50 1940Q358 1980 420 1980Q438 1980 462.50 1974Q487 1968 504 1962L811 1827Q887 1794 887 1714Q887 1651 851 1611Q815 1571 754 1571Q736 1571 711 1577Q686 1583 670 1589L362 1724Q286 1757 287 1837M479 594L827 594L662 1133L479 594Z"  horiz-adv-x="1306" vert-adv-y="2048"  />

      
      <glyph glyph-name="unic1" unicode="&#xc1;" d="M6 125Q6 164 15.50 206Q25 248 55 332L375 1202Q432 1360 473 1415Q541 1505 651 1505Q741 1505 800.50 1452Q860 1399 932 1202L1251 332Q1284 244 1292 205Q1300 166 1300 125Q1300 62 1257 25Q1214-12 1141-12Q1065-12 1024 33Q991 68 967 152L926 283L381 283L340 152Q313 70 283 35Q242-12 166-12Q94-12 50 25.50Q6 63 6 125M420 1714Q420 1794 496 1827L803 1962Q817 1968 840.50 1974Q864 1980 887 1980Q946 1980 983 1939Q1020 1898 1020 1837Q1020 1757 944 1724L637 1589Q623 1583 599 1577Q575 1571 553 1571Q494 1571 457 1612Q420 1653 420 1714M479 594L827 594L662 1133L479 594Z"  horiz-adv-x="1306" vert-adv-y="2048"  />

      
      <glyph glyph-name="unic2" unicode="&#xc2;" d="M6 125Q6 164 15.50 206Q25 248 55 332L375 1202Q432 1360 473 1415Q541 1505 651 1505Q741 1505 800.50 1452Q860 1399 932 1202L1251 332Q1284 244 1292 205Q1300 166 1300 125Q1300 62 1257 25Q1214-12 1141-12Q1065-12 1024 33Q991 68 967 152L926 283L381 283L340 152Q313 70 283 35Q242-12 166-12Q94-12 50 25.50Q6 63 6 125M238 1696Q238 1762 259.50 1791.50Q281 1821 346 1851L526 1935Q559 1949 590 1962Q637 1980 653 1980Q673 1980 710.50 1965Q748 1950 780 1935L961 1851Q1022 1822 1045.50 1789.50Q1069 1757 1069 1696Q1069 1643 1037.50 1607Q1006 1571 961 1571Q930 1571 912.50 1576Q895 1581 850 1602L653 1694L457 1602Q430 1590 401.50 1580.50Q373 1571 346 1571Q303 1571 270.50 1605.50Q238 1640 238 1696M479 594L827 594L662 1133L479 594Z"  horiz-adv-x="1306" vert-adv-y="2048"  />

      
      <glyph glyph-name="unic3" unicode="&#xc3;" d="M6 125Q6 164 15.50 206Q25 248 55 332L375 1202Q432 1360 473 1415Q541 1505 651 1505Q741 1505 800.50 1452Q860 1399 932 1202L1251 332Q1284 244 1292 205Q1300 166 1300 125Q1300 62 1257 25Q1214-12 1141-12Q1065-12 1024 33Q991 68 967 152L926 283L381 283L340 152Q313 70 283 35Q242-12 166-12Q94-12 50 25.50Q6 63 6 125M217 1704Q217 1788 279.50 1858.50Q342 1929 424 1929Q496 1929 584 1898Q781 1830 791 1831Q828 1831 862 1862Q938 1930 971 1929Q1026 1929 1058 1891Q1090 1853 1090 1796Q1090 1712 1027.50 1641.50Q965 1571 883 1571Q795 1571 671 1619Q547 1667 516 1667Q477 1667 444 1638Q366 1570 336 1571Q281 1571 249 1609Q217 1647 217 1704M479 594L827 594L662 1133L479 594Z"  horiz-adv-x="1306" vert-adv-y="2048"  />

      
      <glyph glyph-name="unic4" unicode="&#xc4;" d="M6 125Q6 164 15.50 206Q25 248 55 332L375 1202Q432 1360 473 1415Q541 1505 651 1505Q741 1505 800.50 1452Q860 1399 932 1202L1251 332Q1284 244 1292 205Q1300 166 1300 125Q1300 62 1257 25Q1214-12 1141-12Q1065-12 1024 33Q991 68 967 152L926 283L381 283L340 152Q313 70 283 35Q242-12 166-12Q94-12 50 25.50Q6 63 6 125M256 1776Q256 1842 302 1889.50Q348 1937 416 1937Q482 1937 528.50 1890.50Q575 1844 575 1776Q575 1710 529 1662Q483 1614 416 1614Q350 1614 303 1661Q256 1708 256 1776M479 594L827 594L662 1133L479 594M731 1776Q731 1842 777 1889.50Q823 1937 891 1937Q957 1937 1004 1890.50Q1051 1844 1051 1776Q1051 1710 1004.50 1662Q958 1614 891 1614Q825 1614 778 1661Q731 1708 731 1776Z"  horiz-adv-x="1306" vert-adv-y="2048"  />

      
      <glyph glyph-name="unic5" unicode="&#xc5;" d="M6 125Q6 164 15.50 206Q25 248 55 332L375 1202Q432 1360 473 1415Q541 1505 651 1505Q741 1505 800.50 1452Q860 1399 932 1202L1251 332Q1284 244 1292 205Q1300 166 1300 125Q1300 62 1257 25Q1214-12 1141-12Q1065-12 1024 33Q991 68 967 152L926 283L381 283L340 152Q313 70 283 35Q242-12 166-12Q94-12 50 25.50Q6 63 6 125M451 1753Q451 1835 510 1896.50Q569 1958 653 1958Q737 1958 796.50 1898.50Q856 1839 856 1753Q856 1669 796.50 1607.50Q737 1546 653 1546Q569 1546 510 1607.50Q451 1669 451 1753M479 594L827 594L662 1133L479 594M561 1753Q561 1716 587.50 1687.50Q614 1659 653 1659Q690 1659 717.50 1686.50Q745 1714 745 1753Q745 1790 717.50 1817.50Q690 1845 653 1845Q616 1845 588.50 1817.50Q561 1790 561 1753Z"  horiz-adv-x="1306" vert-adv-y="2048"  />

      
      <glyph glyph-name="unic6" unicode="&#xc6;" d="M55 152Q55 195 67.50 229.50Q80 264 100 299L696 1323Q753 1419 807.50 1446Q862 1473 979 1473L1606 1473Q1686 1473 1729 1432Q1772 1391 1772 1317Q1772 1245 1729 1204Q1686 1163 1606 1163L1264 1163L1264 895L1577 895Q1655 895 1699 854Q1743 813 1743 741Q1743 585 1577 586L1264 586L1264 311L1620 311Q1700 311 1743 270Q1786 229 1786 156Q1786 84 1742 42Q1698 0 1620 0L1098 0Q1030 0 981 45Q932 90 932 168L932 283L467 283L403 156Q354 60 330 33Q287-12 201-12Q135-12 95 32Q55 76 55 152M633 594L932 594L932 1159L633 594Z"  horiz-adv-x="1841" vert-adv-y="2048"  />

      
      <glyph glyph-name="unic7" unicode="&#xc7;" d="M8 737Q8 1075 206.50 1290Q405 1505 731 1505Q911 1505 1026 1456Q1171 1395 1171 1272Q1171 1209 1131.50 1160.50Q1092 1112 1028 1112Q1008 1112 868 1159Q794 1184 739 1184Q551 1184 453 1047Q365 924 365 737Q365 551 456 426Q547 301 711 301Q813 301 885.50 323.50Q958 346 1036 371Q1122 371 1159 309Q1184 268 1184 215Q1184 90 1024 23Q893-32 725-33Q391-33 195 193Q9 406 8 737M393-362Q393-337 408.50-314Q424-291 449-291Q469-291 518-311Q547-323 563-324Q592-324 612.50-305.50Q633-287 633-256Q633-227 612.50-213Q592-199 569-199L528-199Q510-199 495.50-184.50Q481-170 481-152Q481-127 500-98Q508-86 537-51L580 0L721 0L641-109L690-106Q762-106 808-150.50Q854-195 854-270Q854-358 766-412Q690-459 598-459Q520-459 473-444Q393-419 393-362Z"  horiz-adv-x="1191" vert-adv-y="2048"  />

      
      <glyph glyph-name="unic8" unicode="&#xc8;" d="M41 168L41 1305Q41 1385 89 1429Q137 1473 207 1473L715 1473Q795 1473 838 1432Q881 1391 881 1317Q881 1245 838 1204Q795 1163 715 1163L373 1163L373 895L686 895Q764 895 808 854Q852 813 852 741Q852 585 686 586L373 586L373 311L727 311Q807 311 850 270Q893 229 893 156Q893 84 849 42Q805 0 727 0L207 0Q139 0 90 45Q41 90 41 168M70 1837Q70 1900 105.50 1940Q141 1980 203 1980Q221 1980 245.50 1974Q270 1968 287 1962L594 1827Q670 1792 670 1714Q670 1651 634 1611Q598 1571 537 1571Q519 1571 494 1577Q469 1583 453 1589L145 1724Q69 1757 70 1837Z"  horiz-adv-x="931" vert-adv-y="2048"  />

      
      <glyph glyph-name="unic9" unicode="&#xc9;" d="M41 168L41 1305Q41 1385 89 1429Q137 1473 207 1473L715 1473Q795 1473 838 1432Q881 1391 881 1317Q881 1245 838 1204Q795 1163 715 1163L373 1163L373 895L686 895Q764 895 808 854Q852 813 852 741Q852 585 686 586L373 586L373 311L727 311Q807 311 850 270Q893 229 893 156Q893 84 849 42Q805 0 727 0L207 0Q139 0 90 45Q41 90 41 168M203 1714Q203 1794 279 1827L586 1962Q600 1968 623.50 1974Q647 1980 670 1980Q729 1980 766 1939Q803 1898 803 1837Q803 1759 727 1724L420 1589Q406 1583 382 1577Q358 1571 336 1571Q277 1571 240 1612Q203 1653 203 1714Z"  horiz-adv-x="931" vert-adv-y="2048"  />

      
      <glyph glyph-name="unica" unicode="&#xca;" d="M31 1696Q31 1762 52.50 1791.50Q74 1821 139 1851L319 1935Q352 1949 383 1962Q430 1980 446 1980Q466 1980 503.50 1965Q541 1950 573 1935L754 1851Q815 1822 838.50 1789.50Q862 1757 862 1696Q862 1643 830.50 1607Q799 1571 754 1571Q723 1571 705.50 1576Q688 1581 643 1602L446 1694L250 1602Q223 1590 194.50 1580.50Q166 1571 139 1571Q96 1571 63.50 1605.50Q31 1640 31 1696M51 168L51 1305Q51 1385 99 1429Q147 1473 217 1473L725 1473Q805 1473 848 1432Q891 1391 891 1317Q891 1245 848 1204Q805 1163 725 1163L383 1163L383 895L696 895Q774 895 818 854Q862 813 862 741Q862 585 696 586L383 586L383 311L737 311Q817 311 860 270Q903 229 903 156Q903 84 859 42Q815 0 737 0L217 0Q149 0 100 45Q51 90 51 168Z"  horiz-adv-x="931" vert-adv-y="2048"  />

      
      <glyph glyph-name="unicb" unicode="&#xcb;" d="M39 1776Q39 1842 85 1889.50Q131 1937 199 1937Q265 1937 311.50 1890.50Q358 1844 358 1776Q358 1710 312 1662Q266 1614 199 1614Q133 1614 86 1661Q39 1708 39 1776M41 168L41 1305Q41 1385 89 1429Q137 1473 207 1473L715 1473Q795 1473 838 1432Q881 1391 881 1317Q881 1245 838 1204Q795 1163 715 1163L373 1163L373 895L686 895Q764 895 808 854Q852 813 852 741Q852 585 686 586L373 586L373 311L727 311Q807 311 850 270Q893 229 893 156Q893 84 849 42Q805 0 727 0L207 0Q139 0 90 45Q41 90 41 168M514 1776Q514 1842 560 1889.50Q606 1937 674 1937Q740 1937 787 1890.50Q834 1844 834 1776Q834 1710 787.50 1662Q741 1614 674 1614Q608 1614 561 1661Q514 1708 514 1776Z"  horiz-adv-x="931" vert-adv-y="2048"  />

      
      <glyph glyph-name="unicc" unicode="&#xcc;" d="M18 1837Q18 1900 54 1940Q90 1980 152 1980Q170 1980 194.50 1974Q219 1968 236 1962L543 1827Q619 1794 618 1714Q618 1651 582.50 1611Q547 1571 485 1571Q467 1571 442.50 1577Q418 1583 401 1589L94 1724Q18 1757 18 1837M219 166L219 1307Q219 1393 265 1439Q311 1485 385 1485Q461 1485 506 1440Q551 1395 551 1307L551 166Q551 80 505 34Q459-12 385-12Q309-12 264 33Q219 78 219 166Z"  horiz-adv-x="636" vert-adv-y="2048"  />

      
      <glyph glyph-name="unicd" unicode="&#xcd;" d="M-55 1714Q-55 1792 20 1827L328 1962Q342 1968 365.50 1974Q389 1980 412 1980Q471 1980 508 1939Q545 1898 545 1837Q545 1757 469 1724L162 1589Q148 1583 124 1577Q100 1571 78 1571Q19 1571-18 1612Q-55 1653-55 1714M12 166L12 1307Q12 1393 58 1439Q104 1485 178 1485Q254 1485 299 1440Q344 1395 344 1307L344 166Q344 80 298 34Q252-12 178-12Q102-12 57 33Q12 78 12 166Z"  horiz-adv-x="491" vert-adv-y="2048"  />

      
      <glyph glyph-name="unice" unicode="&#xce;" d="M-174 1696Q-174 1762-152.50 1791.50Q-131 1821-66 1851L115 1935Q148 1949 178 1962Q225 1980 242 1980Q262 1980 299 1965Q336 1950 369 1935L549 1851Q610 1822 633.50 1789.50Q657 1757 657 1696Q657 1643 625.50 1607Q594 1571 549 1571Q518 1571 500.50 1576Q483 1581 438 1602L242 1694L45 1602Q18 1590-10.50 1580.50Q-39 1571-66 1571Q-109 1571-141.50 1605.50Q-174 1640-174 1696M76 166L76 1307Q76 1393 122 1439Q168 1485 242 1485Q318 1485 363 1440Q408 1395 408 1307L408 166Q408 80 361.50 34Q315-12 242-12Q166-12 121 33Q76 78 76 166Z"  horiz-adv-x="483" vert-adv-y="2048"  />

      
      <glyph glyph-name="unicf" unicode="&#xcf;" d="M-156 1776Q-156 1842-109.50 1889.50Q-63 1937 4 1937Q70 1937 117 1890.50Q164 1844 164 1776Q164 1710 118 1662Q72 1614 4 1614Q-62 1614-109 1661Q-156 1708-156 1776M76 166L76 1307Q76 1393 122 1439Q168 1485 242 1485Q318 1485 363 1440Q408 1395 408 1307L408 166Q408 80 361.50 34Q315-12 242-12Q166-12 121 33Q76 78 76 166M319 1776Q319 1842 365.50 1889.50Q412 1937 479 1937Q545 1937 592 1890.50Q639 1844 639 1776Q639 1710 593 1662Q547 1614 479 1614Q413 1614 366 1661Q319 1708 319 1776Z"  horiz-adv-x="483" vert-adv-y="2048"  />

      
      <glyph glyph-name="unid0" unicode="&#xd0;" d="M43 748Q43 807 78 842Q113 877 172 877L227 877L227 1305Q227 1385 275.50 1429Q324 1473 393 1473L791 1473Q1102 1473 1292 1251Q1470 1044 1470 748Q1470 400 1266 193Q1076 0 791 0L393 0Q325 0 276 45Q227 90 227 168L227 616L172 616Q43 616 43 748M559 311L735 311Q923 311 1022 432Q1114 545 1114 748Q1114 941 1024 1049Q928 1164 750 1163L559 1163L559 877L727 877Q786 877 821 842Q856 807 856 748Q856 687 823.50 651.50Q791 616 727 616L559 616L559 311Z"  horiz-adv-x="1513" vert-adv-y="2048"  />

      
      <glyph glyph-name="unid1" unicode="&#xd1;" d="M76 166L76 1307Q76 1393 122 1439Q168 1485 242 1485Q316 1485 373 1425Q393 1405 471 1305L1022 608L1026 1307Q1026 1393 1072 1439Q1118 1485 1192 1485Q1268 1485 1313 1440Q1358 1395 1358 1307L1358 166Q1358 80 1312 34Q1266-12 1192-12Q1120-12 1061 49Q1038 74 963 168L412 864L408 166Q408 80 361.50 34Q315-12 242-12Q166-12 121 33Q76 78 76 166M281 1704Q281 1788 343 1858.50Q405 1929 487 1929Q559 1929 647 1898Q844 1830 854 1831Q891 1831 926 1862Q1002 1930 1034 1929Q1089 1929 1121 1891Q1153 1853 1153 1796Q1153 1712 1090.50 1641.50Q1028 1571 946 1571Q858 1571 734 1619Q610 1667 580 1667Q541 1667 508 1638Q430 1570 399 1571Q344 1571 312.50 1609Q281 1647 281 1704Z"  horiz-adv-x="1433" vert-adv-y="2048"  />

      
      <glyph glyph-name="unid2" unicode="&#xd2;" d="M88 737Q88 1085 283.50 1295Q479 1505 805 1505Q1129 1505 1325.50 1296Q1522 1087 1522 737Q1522 387 1326 177Q1130-33 805-33Q479-33 283.50 177Q88 387 88 737M438 1837Q438 1900 474 1940Q510 1980 571 1980Q589 1980 614 1974Q639 1968 655 1962L963 1827Q1039 1792 1038 1714Q1038 1651 1002.50 1611Q967 1571 905 1571Q887 1571 862.50 1577Q838 1583 821 1589L514 1724Q438 1757 438 1837M444 737Q444 542 528 418Q624 277 805 276Q985 276 1081 418Q1165 543 1165 737Q1165 930 1081 1055Q985 1196 805 1196Q625 1196 528 1055Q444 932 444 737Z"  horiz-adv-x="1607" vert-adv-y="2048"  />

      
      <glyph glyph-name="unid3" unicode="&#xd3;" d="M41 737Q41 1085 236.50 1295Q432 1505 758 1505Q1082 1505 1278.50 1296Q1475 1087 1475 737Q1475 387 1279 177Q1083-33 758-33Q432-33 236.50 177Q41 387 41 737M397 737Q397 542 481 418Q577 277 758 276Q938 276 1034 418Q1118 543 1118 737Q1118 930 1034 1055Q938 1196 758 1196Q578 1196 481 1055Q397 932 397 737M524 1714Q524 1794 600 1827L907 1962Q921 1968 945 1974Q969 1980 991 1980Q1050 1980 1087 1939Q1124 1898 1124 1837Q1124 1759 1049 1724L741 1589Q727 1583 703.50 1577Q680 1571 657 1571Q598 1571 561 1612Q524 1653 524 1714Z"  horiz-adv-x="1513" vert-adv-y="2048"  />

      
      <glyph glyph-name="unid4" unicode="&#xd4;" d="M41 737Q41 1085 236.50 1295Q432 1505 758 1505Q1082 1505 1278.50 1296Q1475 1087 1475 737Q1475 387 1279 177Q1083-33 758-33Q432-33 236.50 177Q41 387 41 737M342 1696Q342 1762 363.50 1791.50Q385 1821 451 1851L631 1935Q649 1943 695 1961.50Q741 1980 758 1980Q778 1980 815 1965Q852 1950 885 1935L1065 1851Q1126 1822 1150 1790.50Q1174 1759 1174 1696Q1174 1643 1142 1607Q1110 1571 1065 1571Q1034 1571 1013.50 1577Q993 1583 954 1602L758 1694L561 1602Q534 1590 505.50 1580.50Q477 1571 451 1571Q408 1571 375 1605.50Q342 1640 342 1696M397 737Q397 542 481 418Q577 277 758 276Q938 276 1034 418Q1118 543 1118 737Q1118 930 1034 1055Q938 1196 758 1196Q578 1196 481 1055Q397 932 397 737Z"  horiz-adv-x="1513" vert-adv-y="2048"  />

      
      <glyph glyph-name="unid5" unicode="&#xd5;" d="M41 737Q41 1085 236.50 1295Q432 1505 758 1505Q1082 1505 1278.50 1296Q1475 1087 1475 737Q1475 387 1279 177Q1083-33 758-33Q432-33 236.50 177Q41 387 41 737M322 1704Q322 1788 384 1858.50Q446 1929 528 1929Q600 1929 688 1898Q885 1830 895 1831Q932 1831 967 1862Q1043 1930 1075 1929Q1130 1929 1162 1891Q1194 1853 1194 1796Q1194 1712 1131.50 1641.50Q1069 1571 987 1571Q899 1571 775 1619Q651 1667 621 1667Q582 1667 549 1638Q471 1570 440 1571Q385 1571 353.50 1609Q322 1647 322 1704M397 737Q397 542 481 418Q577 277 758 276Q938 276 1034 418Q1118 543 1118 737Q1118 930 1034 1055Q938 1196 758 1196Q578 1196 481 1055Q397 932 397 737Z"  horiz-adv-x="1513" vert-adv-y="2048"  />

      
      <glyph glyph-name="unid6" unicode="&#xd6;" d="M86 737Q86 1085 281.50 1295Q477 1505 803 1505Q1127 1505 1323.50 1296Q1520 1087 1520 737Q1520 387 1324 177Q1128-33 803-33Q477-33 281.50 177Q86 387 86 737M406 1776Q406 1842 452 1889.50Q498 1937 565 1937Q631 1937 678 1890.50Q725 1844 725 1776Q725 1710 679 1662Q633 1614 565 1614Q499 1614 452.50 1661Q406 1708 406 1776M442 737Q442 542 526 418Q622 277 803 276Q983 276 1079 418Q1163 543 1163 737Q1163 930 1079 1055Q983 1196 803 1196Q623 1196 526 1055Q442 932 442 737M881 1776Q881 1842 927 1889.50Q973 1937 1040 1937Q1106 1937 1153 1890.50Q1200 1844 1200 1776Q1200 1710 1154 1662Q1108 1614 1040 1614Q974 1614 927.50 1661Q881 1708 881 1776Z"  horiz-adv-x="1607" vert-adv-y="2048"  />

      
      <glyph glyph-name="unid7" unicode="&#xd7;" d="M137 215Q137 262 174 299L457 586L174 868Q137 905 137 948Q137 999 185 1047.50Q233 1096 279 1096Q320 1096 360 1055L643 772L926 1055Q944 1073 964.50 1084.50Q985 1096 1010 1096Q1035 1096 1053 1084.50Q1071 1073 1102 1047Q1149 1004 1149 946Q1149 923 1138.50 905Q1128 887 1110 868L827 586L1110 299Q1149 260 1149 217Q1149 190 1137.50 170Q1126 150 1102 123Q1053 74 1004 74Q963 74 926 115L643 399L360 115Q344 99 323.50 86.50Q303 74 283 74Q234 74 184 123Q159 148 148 168Q137 188 137 215Z"  horiz-adv-x="1284" vert-adv-y="2048"  />

      
      <glyph glyph-name="unid8" unicode="&#xd8;" d="M57 0Q57 33 72 59Q78 71 106 104L231 242Q88 443 88 737Q88 1085 283.50 1295Q479 1505 805 1505Q1065 1505 1243 1370L1370 1511Q1390 1534 1401 1542Q1428 1565 1456 1565Q1497 1565 1524.50 1541.50Q1552 1518 1552 1479Q1552 1444 1541 1424.50Q1530 1405 1503 1376L1376 1235Q1446 1139 1484 1011Q1522 883 1522 737Q1522 387 1326 177Q1130-33 805-33Q543-33 365 106L240-33Q217-60 197.50-72Q178-84 154-84Q111-84 84-61.50Q57-39 57 0M444 737Q444 678 452.50 623.50Q461 569 481 520L1020 1120Q934 1196 805 1196Q625 1196 528 1055Q444 932 444 737M588 354Q629 315 682 295.50Q735 276 805 276Q985 276 1081 418Q1165 543 1165 737Q1165 856 1128 958L588 354Z"  horiz-adv-x="1611" vert-adv-y="2048"  />

      
      <glyph glyph-name="unid9" unicode="&#xd9;" d="M61 592L61 1307Q61 1393 107.50 1439Q154 1485 227 1485Q303 1485 348 1440Q393 1395 393 1307L393 592Q393 451 481 367Q563 289 692 289Q819 289 906 370Q993 451 993 592L993 1307Q993 1393 1039 1439Q1085 1485 1159 1485Q1235 1485 1280 1440Q1325 1395 1325 1307L1325 592Q1325 305 1150 136Q975-33 692-33Q411-33 240 133Q62 305 61 592M328 1837Q328 1900 363.50 1940Q399 1980 461 1980Q479 1980 503.50 1974Q528 1968 545 1962L852 1827Q928 1794 928 1714Q928 1651 892 1611Q856 1571 795 1571Q777 1571 752 1577Q727 1583 711 1589L403 1724Q327 1759 328 1837Z"  horiz-adv-x="1388" vert-adv-y="2048"  />

      
      <glyph glyph-name="unida" unicode="&#xda;" d="M61 592L61 1307Q61 1393 107.50 1439Q154 1485 227 1485Q303 1485 348 1440Q393 1395 393 1307L393 592Q393 451 481 367Q563 289 692 289Q819 289 906 370Q993 451 993 592L993 1307Q993 1393 1039 1439Q1085 1485 1159 1485Q1235 1485 1280 1440Q1325 1395 1325 1307L1325 592Q1325 305 1150 136Q975-33 692-33Q411-33 240 133Q62 305 61 592M461 1714Q461 1792 537 1827L844 1962Q858 1968 881.50 1974Q905 1980 928 1980Q987 1980 1024 1939Q1061 1898 1061 1837Q1061 1757 985 1724L678 1589Q664 1583 640 1577Q616 1571 594 1571Q535 1571 498 1612Q461 1653 461 1714Z"  horiz-adv-x="1388" vert-adv-y="2048"  />

      
      <glyph glyph-name="unidb" unicode="&#xdb;" d="M61 592L61 1307Q61 1393 107.50 1439Q154 1485 227 1485Q303 1485 348 1440Q393 1395 393 1307L393 592Q393 451 481 367Q563 289 692 289Q819 289 906 370Q993 451 993 592L993 1307Q993 1393 1039 1439Q1085 1485 1159 1485Q1235 1485 1280 1440Q1325 1395 1325 1307L1325 592Q1325 305 1150 136Q975-33 692-33Q411-33 240 133Q62 305 61 592M279 1696Q279 1759 302.50 1791Q326 1823 387 1851L567 1935Q600 1949 631 1962Q678 1980 694 1980Q717 1980 758 1964Q772 1958 821 1935L1001 1851Q1062 1822 1086 1789.50Q1110 1757 1110 1696Q1110 1643 1078.50 1607Q1047 1571 1001 1571Q970 1571 953 1576Q936 1581 891 1602L694 1694L498 1602Q471 1590 443.50 1580.50Q416 1571 387 1571Q344 1571 311.50 1605.50Q279 1640 279 1696Z"  horiz-adv-x="1388" vert-adv-y="2048"  />

      
      <glyph glyph-name="unidc" unicode="&#xdc;" d="M109 592L109 1307Q109 1393 155 1439Q201 1485 274 1485Q350 1485 395 1440Q440 1395 440 1307L440 592Q440 451 528 367Q610 289 739 289Q866 289 953 370Q1040 451 1040 592L1040 1307Q1040 1393 1086.50 1439Q1133 1485 1206 1485Q1282 1485 1327 1440Q1372 1395 1372 1307L1372 592Q1372 305 1197 136Q1022-33 739-33Q458-33 287 133Q109 305 109 592M344 1776Q344 1842 390 1889.50Q436 1937 504 1937Q570 1937 617 1890.50Q664 1844 664 1776Q664 1710 617.50 1662Q571 1614 504 1614Q438 1614 391 1661Q344 1708 344 1776M819 1776Q819 1842 865 1889.50Q911 1937 979 1937Q1045 1937 1092 1890.50Q1139 1844 1139 1776Q1139 1710 1093 1662Q1047 1614 979 1614Q913 1614 866 1661Q819 1708 819 1776Z"  horiz-adv-x="1480" vert-adv-y="2048"  />

      
      <glyph glyph-name="unidd" unicode="&#xdd;" d="M25 1335Q25 1401 75 1443Q125 1485 201 1485Q260 1485 305 1448Q334 1425 369 1372L614 1018L860 1372Q899 1427 922 1446Q969 1485 1028 1485Q1104 1485 1154 1444Q1204 1403 1204 1335Q1204 1286 1180.50 1243Q1157 1200 1067 1079L780 690L780 166Q780 80 734 34Q688-12 614-12Q538-12 493.50 33Q449 78 449 166L449 690L162 1079Q76 1196 53 1237Q24 1288 25 1335M381 1714Q381 1792 457 1827L764 1962Q778 1968 801.50 1974Q825 1980 848 1980Q907 1980 944 1939Q981 1898 981 1837Q981 1757 905 1724L598 1589Q584 1583 560.50 1577Q537 1571 514 1571Q455 1571 418 1612Q381 1653 381 1714Z"  horiz-adv-x="1230" vert-adv-y="2048"  />

      
      <glyph glyph-name="unide" unicode="&#xde;" d="M78 166L78 1307Q78 1395 123 1440Q168 1485 244 1485Q318 1485 364 1441Q410 1397 410 1307L410 1253L651 1253Q858 1253 997 1128Q1151 991 1151 756Q1151 535 1026 399Q893 256 662 256L410 256L410 166Q410 78 364.50 33Q319-12 244-12Q170-12 124 32Q78 76 78 166M410 555L588 555Q688 555 747.50 614.50Q807 674 807 756Q807 852 748.50 904Q690 956 588 956L410 956L410 555Z"  horiz-adv-x="1228" vert-adv-y="2048"  />

      
      <glyph glyph-name="unidf" unicode="&#xdf;" d="M96 156L96 1102Q96 1321 234.50 1457Q373 1593 582 1593Q789 1593 918 1470.50Q1047 1348 1047 1151Q1047 1067 1013 995.50Q979 924 915 879Q1036 834 1097.50 726Q1159 618 1159 479Q1159 262 1010 111Q869-32 682-33Q600-33 550 7Q500 47 500 121Q500 254 664 279Q736 289 781.50 352.50Q827 416 827 489Q827 591 766 645Q723 684 659 694Q567 710 526 745Q485 780 485 856Q485 958 606 999Q727 1040 727 1147Q727 1206 689 1244Q651 1282 586 1282Q496 1282 456 1216.50Q416 1151 416 1038L416 156Q416 84 372 36Q328-12 256-12Q186-12 141 35Q96 82 96 156Z"  horiz-adv-x="1253" vert-adv-y="2048"  />

      
      <glyph glyph-name="unie0" unicode="&#xe0;" d="M45 551Q45 795 187.50 964Q330 1133 539 1133Q633 1133 695.50 1106Q758 1079 813 1010Q833 1053 866 1079Q907 1112 963 1112Q1033 1112 1077.50 1065Q1122 1018 1122 946L1122 156Q1122 84 1078 36Q1034-12 963-12Q912-12 871.50 18.50Q831 49 813 90Q713-33 539-33Q332-33 188.50 137Q45 307 45 551M236 1493Q236 1556 271.50 1596Q307 1636 369 1636Q387 1636 411.50 1630Q436 1624 453 1618L760 1483Q836 1448 836 1370Q836 1307 800 1267Q764 1227 702 1227Q684 1227 659.50 1233Q635 1239 618 1245L311 1380Q235 1413 236 1493M365 551Q365 432 423 354Q481 276 584 276Q686 276 744.50 355Q803 434 803 551Q803 668 748 741Q687 823 584 823Q482 823 423.50 745.50Q365 668 365 551Z"  horiz-adv-x="1165" vert-adv-y="2048"  />

      
      <glyph glyph-name="unie1" unicode="&#xe1;" d="M45 551Q45 795 187.50 964Q330 1133 539 1133Q633 1133 695.50 1106Q758 1079 813 1010Q833 1053 866 1079Q907 1112 963 1112Q1033 1112 1077.50 1065Q1122 1018 1122 946L1122 156Q1122 84 1078 36Q1034-12 963-12Q912-12 871.50 18.50Q831 49 813 90Q713-33 539-33Q332-33 188.50 137Q45 307 45 551M365 551Q365 432 423 354Q481 276 584 276Q686 276 744.50 355Q803 434 803 551Q803 668 748 741Q687 823 584 823Q482 823 423.50 745.50Q365 668 365 551M369 1370Q369 1450 444 1483L752 1618Q766 1624 789.50 1630Q813 1636 836 1636Q895 1636 932 1595Q969 1554 969 1493Q969 1415 893 1380L586 1245Q572 1239 548 1233Q524 1227 502 1227Q443 1227 406 1268Q369 1309 369 1370Z"  horiz-adv-x="1165" vert-adv-y="2048"  />

      
      <glyph glyph-name="unie2" unicode="&#xe2;" d="M45 551Q45 795 187.50 964Q330 1133 539 1133Q633 1133 695.50 1106Q758 1079 813 1010Q833 1053 866 1079Q907 1112 963 1112Q1033 1112 1077.50 1065Q1122 1018 1122 946L1122 156Q1122 84 1078 36Q1034-12 963-12Q912-12 871.50 18.50Q831 49 813 90Q713-33 539-33Q332-33 188.50 137Q45 307 45 551M186 1352Q186 1418 207.50 1447.50Q229 1477 295 1507L475 1591Q493 1599 539.50 1617.50Q586 1636 602 1636Q622 1636 659 1621Q696 1606 729 1591L909 1507Q970 1478 994 1445.50Q1018 1413 1018 1352Q1018 1299 986 1263Q954 1227 909 1227Q878 1227 858 1233Q838 1239 799 1257L602 1350L406 1257Q379 1245 350.50 1236Q322 1227 295 1227Q252 1227 219 1261.50Q186 1296 186 1352M365 551Q365 432 423 354Q481 276 584 276Q686 276 744.50 355Q803 434 803 551Q803 668 748 741Q687 823 584 823Q482 823 423.50 745.50Q365 668 365 551Z"  horiz-adv-x="1165" vert-adv-y="2048"  />

      
      <glyph glyph-name="unie3" unicode="&#xe3;" d="M45 551Q45 795 187.50 964Q330 1133 539 1133Q633 1133 695.50 1106Q758 1079 813 1010Q833 1053 866 1079Q907 1112 963 1112Q1033 1112 1077.50 1065Q1122 1018 1122 946L1122 156Q1122 84 1078 36Q1034-12 963-12Q912-12 871.50 18.50Q831 49 813 90Q713-33 539-33Q332-33 188.50 137Q45 307 45 551M166 1360Q166 1444 228.50 1514.50Q291 1585 373 1585Q445 1585 532 1554Q729 1486 739 1487Q776 1487 811 1518Q887 1586 920 1585Q975 1585 1006.50 1547Q1038 1509 1038 1452Q1038 1368 975.50 1297.50Q913 1227 831 1227Q743 1227 619.50 1275Q496 1323 465 1323Q426 1323 393 1294Q315 1226 285 1227Q230 1227 198 1265Q166 1303 166 1360M365 551Q365 432 423 354Q481 276 584 276Q686 276 744.50 355Q803 434 803 551Q803 668 748 741Q687 823 584 823Q482 823 423.50 745.50Q365 668 365 551Z"  horiz-adv-x="1165" vert-adv-y="2048"  />

      
      <glyph glyph-name="unie4" unicode="&#xe4;" d="M45 551Q45 795 187.50 964Q330 1133 539 1133Q633 1133 695.50 1106Q758 1079 813 1010Q833 1053 866 1079Q907 1112 963 1112Q1033 1112 1077.50 1065Q1122 1018 1122 946L1122 156Q1122 84 1078 36Q1034-12 963-12Q912-12 871.50 18.50Q831 49 813 90Q713-33 539-33Q332-33 188.50 137Q45 307 45 551M205 1432Q205 1498 251 1545.50Q297 1593 365 1593Q431 1593 477.50 1546.50Q524 1500 524 1432Q524 1366 478 1318Q432 1270 365 1270Q299 1270 252 1317Q205 1364 205 1432M365 551Q365 432 423 354Q481 276 584 276Q686 276 744.50 355Q803 434 803 551Q803 668 748 741Q687 823 584 823Q482 823 423.50 745.50Q365 668 365 551M680 1432Q680 1498 726 1545.50Q772 1593 840 1593Q906 1593 952.50 1546.50Q999 1500 999 1432Q999 1366 953 1318Q907 1270 840 1270Q774 1270 727 1317Q680 1364 680 1432Z"  horiz-adv-x="1165" vert-adv-y="2048"  />

      
      <glyph glyph-name="unie5" unicode="&#xe5;" d="M45 551Q45 795 187.50 964Q330 1133 539 1133Q633 1133 695.50 1106Q758 1079 813 1010Q833 1053 866 1079Q907 1112 963 1112Q1033 1112 1077.50 1065Q1122 1018 1122 946L1122 156Q1122 84 1078 36Q1034-12 963-12Q912-12 871.50 18.50Q831 49 813 90Q713-33 539-33Q332-33 188.50 137Q45 307 45 551M365 551Q365 432 423 354Q481 276 584 276Q686 276 744.50 355Q803 434 803 551Q803 668 748 741Q687 823 584 823Q482 823 423.50 745.50Q365 668 365 551M399 1380Q399 1462 458.50 1523.50Q518 1585 602 1585Q686 1585 745.50 1525.50Q805 1466 805 1380Q805 1296 745.50 1235Q686 1174 602 1174Q518 1174 458.50 1235Q399 1296 399 1380M510 1380Q510 1343 536.50 1314.50Q563 1286 602 1286Q639 1286 666.50 1313.50Q694 1341 694 1380Q694 1417 666.50 1445Q639 1473 602 1473Q565 1473 537.50 1445Q510 1417 510 1380Z"  horiz-adv-x="1165" vert-adv-y="2048"  />

      
      <glyph glyph-name="unie6" unicode="&#xe6;" d="M70 551Q70 795 212 964Q354 1133 563 1133Q659 1133 719.50 1106Q780 1079 834 1010Q838 1065 869.50 1099Q901 1133 975 1133Q1018 1133 1048.50 1111.50Q1079 1090 1094 1059Q1135 1090 1196 1108Q1276 1133 1386 1133Q1613 1133 1763 965Q1904 805 1905 586Q1905 506 1868 475Q1831 444 1749 444L1147 444Q1147 360 1247 305Q1323 264 1427 264Q1515 264 1622 315.50Q1729 367 1755 367Q1812 367 1850 329Q1888 291 1888 227Q1888 114 1733.50 40.50Q1579-33 1386-33Q1290-33 1215.50-13.50Q1141 6 1090 41Q1074 8 1051-8Q1020-33 971-33Q899-33 868.50 0Q838 33 838 90Q738-33 563-33Q356-33 213 137Q70 307 70 551M389 551Q389 432 447.50 354Q506 276 608 276Q710 276 768.50 355Q827 434 827 551Q827 668 772 741Q711 823 608 823Q506 823 447.50 745.50Q389 668 389 551M1147 666L1585 666Q1585 732 1528 791Q1460 861 1366 860Q1272 860 1204 791Q1147 732 1147 666Z"  horiz-adv-x="1974" vert-adv-y="2048"  />

      
      <glyph glyph-name="unie7" unicode="&#xe7;" d="M41 551Q41 799 190.50 966Q340 1133 580 1133Q723 1133 821 1092Q958 1035 958 920Q958 854 920.50 812Q883 770 827 770Q792 770 729 796.50Q666 823 598 823Q483 823 421.50 745.50Q360 668 360 551Q360 432 418.50 354Q477 276 580 276Q650 276 708 294.50Q766 313 827 334Q880 334 919 289Q958 244 958 190Q958 81 817 18Q702-33 580-33Q340-33 190.50 134Q41 301 41 551M281-362Q281-337 296-314Q311-291 336-291Q356-291 406-311Q435-323 451-324Q480-324 500-305.50Q520-287 520-256Q520-227 499.50-213Q479-199 457-199L416-199Q398-199 383.50-184.50Q369-170 369-152Q369-127 387-98Q395-86 424-51L467 0L608 0L528-109L578-106Q650-106 695.50-150.50Q741-195 741-270Q741-358 653-412Q577-459 485-459Q407-459 360-444Q280-419 281-362Z"  horiz-adv-x="999" vert-adv-y="2048"  />

      
      <glyph glyph-name="unie8" unicode="&#xe8;" d="M41 551Q41 791 198.50 962Q356 1133 600 1133Q827 1133 977 965Q1118 805 1118 586Q1118 506 1081 475Q1044 444 963 444L385 444Q385 378 436 330Q504 264 641 264Q729 264 835.50 315.50Q942 367 969 367Q1026 367 1064 329Q1102 291 1102 227Q1102 114 947.50 40.50Q793-33 600-33Q350-33 195.50 134Q41 301 41 551M213 1493Q213 1556 249 1596Q285 1636 346 1636Q364 1636 389 1630Q414 1624 430 1618L737 1483Q813 1448 813 1370Q813 1307 777 1267Q741 1227 680 1227Q662 1227 637 1233Q612 1239 596 1245L289 1380Q213 1413 213 1493M385 666L799 666Q799 732 743 791Q680 861 592 860Q506 860 445.50 794.50Q385 729 385 666Z"  horiz-adv-x="1157" vert-adv-y="2048"  />

      
      <glyph glyph-name="unie9" unicode="&#xe9;" d="M41 551Q41 791 198.50 962Q356 1133 600 1133Q827 1133 977 965Q1118 805 1118 586Q1118 506 1081 475Q1044 444 963 444L385 444Q385 378 436 330Q504 264 641 264Q729 264 835.50 315.50Q942 367 969 367Q1026 367 1064 329Q1102 291 1102 227Q1102 114 947.50 40.50Q793-33 600-33Q350-33 195.50 134Q41 301 41 551M346 1370Q346 1450 422 1483L729 1618Q743 1624 767 1630Q791 1636 813 1636Q872 1636 909 1595Q946 1554 946 1493Q946 1415 870 1380L563 1245Q549 1239 525.50 1233Q502 1227 479 1227Q420 1227 383 1268Q346 1309 346 1370M385 666L799 666Q799 732 743 791Q680 861 592 860Q506 860 445.50 794.50Q385 729 385 666Z"  horiz-adv-x="1157" vert-adv-y="2048"  />

      
      <glyph glyph-name="uniea" unicode="&#xea;" d="M41 551Q41 791 198.50 962Q356 1133 600 1133Q827 1133 977 965Q1118 805 1118 586Q1118 506 1081 475Q1044 444 963 444L385 444Q385 378 436 330Q504 264 641 264Q729 264 835.50 315.50Q942 367 969 367Q1026 367 1064 329Q1102 291 1102 227Q1102 114 947.50 40.50Q793-33 600-33Q350-33 195.50 134Q41 301 41 551M164 1352Q164 1418 185.50 1447.50Q207 1477 272 1507L453 1591Q471 1599 517 1617.50Q563 1636 580 1636Q600 1636 637 1621Q674 1606 707 1591L887 1507Q948 1478 971.50 1446.50Q995 1415 995 1352Q995 1299 963.50 1263Q932 1227 887 1227Q856 1227 835.50 1233Q815 1239 776 1257L580 1350L383 1257Q356 1245 327.50 1236Q299 1227 272 1227Q229 1227 196.50 1261.50Q164 1296 164 1352M385 666L799 666Q799 732 743 791Q680 861 592 860Q506 860 445.50 794.50Q385 729 385 666Z"  horiz-adv-x="1157" vert-adv-y="2048"  />

      
      <glyph glyph-name="unieb" unicode="&#xeb;" d="M41 551Q41 791 198.50 962Q356 1133 600 1133Q827 1133 977 965Q1118 805 1118 586Q1118 506 1081 475Q1044 444 963 444L385 444Q385 378 436 330Q504 264 641 264Q729 264 835.50 315.50Q942 367 969 367Q1026 367 1064 329Q1102 291 1102 227Q1102 114 947.50 40.50Q793-33 600-33Q350-33 195.50 134Q41 301 41 551M182 1432Q182 1498 228 1545.50Q274 1593 342 1593Q408 1593 455 1546.50Q502 1500 502 1432Q502 1366 456 1318Q410 1270 342 1270Q276 1270 229 1317Q182 1364 182 1432M385 666L799 666Q799 732 743 791Q680 861 592 860Q506 860 445.50 794.50Q385 729 385 666M657 1432Q657 1498 703.50 1545.50Q750 1593 817 1593Q883 1593 930 1546.50Q977 1500 977 1432Q977 1366 931 1318Q885 1270 817 1270Q751 1270 704 1317Q657 1364 657 1432Z"  horiz-adv-x="1157" vert-adv-y="2048"  />

      
      <glyph glyph-name="uniec" unicode="&#xec;" d="M-72 1493Q-72 1556-36 1596Q0 1636 61 1636Q79 1636 104 1630Q129 1624 145 1618L453 1483Q529 1450 528 1370Q528 1307 492.50 1267Q457 1227 395 1227Q377 1227 352.50 1233Q328 1239 311 1245L4 1380Q-72 1413-72 1493M135 156L135 946Q135 1016 179 1064Q223 1112 295 1112Q365 1112 410 1065Q455 1018 455 946L455 156Q455 84 411 36Q367-12 295-12Q225-12 180 35Q135 82 135 156Z"  horiz-adv-x="456" vert-adv-y="2048"  />

      
      <glyph glyph-name="unied" unicode="&#xed;" d="M-72 1370Q-72 1450 4 1483L311 1618Q325 1624 349 1630Q373 1636 395 1636Q454 1636 491 1595Q528 1554 528 1493Q528 1413 453 1380L145 1245Q131 1239 107.50 1233Q84 1227 61 1227Q2 1227-35 1268Q-72 1309-72 1370M2 156L2 946Q2 1016 46 1064Q90 1112 162 1112Q232 1112 277 1065Q322 1018 322 946L322 156Q322 84 277.50 36Q233-12 162-12Q92-12 47 35Q2 82 2 156Z"  horiz-adv-x="456" vert-adv-y="2048"  />

      
      <glyph glyph-name="uniee" unicode="&#xee;" d="M-186 1352Q-186 1418-164.50 1447.50Q-143 1477-78 1507L102 1591Q120 1599 166.50 1617.50Q213 1636 229 1636Q249 1636 286.50 1621Q324 1606 356 1591L537 1507Q598 1478 621.50 1446.50Q645 1415 645 1352Q645 1299 613.50 1263Q582 1227 537 1227Q506 1227 485.50 1233Q465 1239 426 1257L229 1350L33 1257Q6 1245-22.50 1236Q-51 1227-78 1227Q-121 1227-153.50 1261.50Q-186 1296-186 1352M70 156L70 946Q70 1016 114 1064Q158 1112 229 1112Q299 1112 344 1065Q389 1018 389 946L389 156Q389 84 345 36Q301-12 229-12Q159-12 114.50 35Q70 82 70 156Z"  horiz-adv-x="456" vert-adv-y="2048"  />

      
      <glyph glyph-name="unief" unicode="&#xef;" d="M-168 1432Q-168 1498-122 1545.50Q-76 1593-8 1593Q58 1593 105 1546.50Q152 1500 152 1432Q152 1364 104.50 1317Q57 1270-8 1270Q-74 1270-121 1317Q-168 1364-168 1432M114.50 35Q114.50 35 92.25 58.50Q70 82 70 156L70 946Q70 1016 114 1064Q158 1112 229 1112Q299 1112 344 1065Q389 1018 389 946L389 156Q389 84 345 36Q301-12 229-12Q159-12 114.50 35M307 1432Q307 1498 353 1545.50Q399 1593 467 1593Q533 1593 580 1546.50Q627 1500 627 1432Q627 1364 579.50 1317Q532 1270 467 1270Q401 1270 354 1317Q307 1364 307 1432Z"  horiz-adv-x="456" vert-adv-y="2048"  />

      
      <glyph glyph-name="unif0" unicode="&#xf0;" d="M72 518Q72 760 211 913.50Q350 1067 573 1067Q649 1067 701.50 1052.50Q754 1038 786 1001L791 1006Q756 1076 709 1133Q648 1207 586 1237L397 1145Q362 1127 339.50 1118.50Q317 1110 297 1110Q264 1110 243.50 1136.50Q223 1163 223 1194Q223 1225 238.50 1241Q254 1257 293 1278L418 1339Q326 1390 303 1411Q262 1446 262 1493Q262 1542 308 1578Q354 1614 434 1614Q504 1614 591 1582Q678 1550 745 1499L913 1583Q950 1601 981 1602Q1012 1602 1034.50 1579Q1057 1556 1057 1516Q1057 1483 1039.50 1467.50Q1022 1452 989 1436L885 1384Q1006 1278 1071 1106Q1149 903 1149 616Q1149 333 1022 162Q879-33 610-33Q377-33 224.50 121.50Q72 276 72 518M391 518Q391 422 453.50 349Q516 276 610 276Q704 276 766.50 348Q829 420 829 518Q829 612 767 685Q705 758 610 758Q518 758 454.50 686Q391 614 391 518Z"  horiz-adv-x="1222" vert-adv-y="2048"  />

      
      <glyph glyph-name="unif1" unicode="&#xf1;" d="M45 156L45 946Q45 1016 89 1064Q133 1112 205 1112Q264 1112 309 1079Q346 1052 365 1010Q443 1133 639 1133Q815 1133 920 1042Q1037 942 1036 754L1036 156Q1036 84 992 36Q948-12 877-12Q807-12 762 35Q717 82 717 156L717 666Q717 752 671 806Q625 860 541 860Q461 860 413 806Q365 752 365 666L365 156Q365 84 320.50 36Q276-12 205-12Q135-12 90 35Q45 82 45 156M104 1360Q104 1444 166.50 1514.50Q229 1585 311 1585Q383 1585 471 1554Q668 1486 678 1487Q715 1487 750 1518Q826 1586 858 1585Q913 1585 945 1547Q977 1509 977 1452Q977 1368 914.50 1297.50Q852 1227 770 1227Q682 1227 558 1275Q434 1323 403 1323Q364 1323 332 1294Q254 1226 223 1227Q168 1227 136 1265Q104 1303 104 1360Z"  horiz-adv-x="1081" vert-adv-y="2048"  />

      
      <glyph glyph-name="unif2" unicode="&#xf2;" d="M33 551Q33 799 182.50 966Q332 1133 571 1133Q811 1133 960.50 967Q1110 801 1110 551Q1110 303 960.50 135Q811-33 571-33Q331-33 182 134Q33 301 33 551M205 1493Q205 1556 240.50 1596Q276 1636 338 1636Q356 1636 381 1630Q406 1624 422 1618L729 1483Q805 1450 805 1370Q805 1307 769 1267Q733 1227 672 1227Q654 1227 629 1233Q604 1239 588 1245L281 1380Q205 1415 205 1493M352 551Q352 432 410.50 354Q469 276 571 276Q673 276 732 355Q791 434 791 551Q791 668 735 741Q674 823 571 823Q469 823 410.50 745.50Q352 668 352 551Z"  horiz-adv-x="1142" vert-adv-y="2048"  />

      
      </font>
</defs>
</svg>
